<?xml version="1.0" encoding="UTF-8" standalone="no"?>
<svg xmlns:dc="http://purl.org/dc/elements/1.1/" xmlns:cc="http://creativecommons.org/ns#" xmlns:rdf="http://www.w3.org/1999/02/22-rdf-syntax-ns#" xmlns:svg="http://www.w3.org/2000/svg" xmlns="http://www.w3.org/2000/svg" xmlns:sodipodi="http://sodipodi.sourceforge.net/DTD/sodipodi-0.dtd" xmlns:inkscape="http://www.inkscape.org/namespaces/inkscape" sodipodi:docname="region29.svg" inkscape:version="1.0 (4035a4f, 2020-05-01)" id="svg959" version="1.1" viewBox="0 0 33.754738 26.353214" height="26.353214mm" width="33.754738mm">
  <defs id="defs953" />
  <sodipodi:namedview inkscape:window-maximized="0" inkscape:window-y="25" inkscape:window-x="0" inkscape:window-height="777" inkscape:window-width="1252" showgrid="false" inkscape:document-rotation="0" inkscape:current-layer="layer1" inkscape:document-units="mm" inkscape:cy="63.660108" inkscape:cx="218.0742" inkscape:zoom="0.35" inkscape:pageshadow="2" inkscape:pageopacity="0.0" borderopacity="1.0" bordercolor="#666666" pagecolor="#ffffff" id="base" />
  <metadata id="metadata956">
    <rdf:RDF>
      <cc:Work rdf:about="">
        <dc:format>image/svg+xml</dc:format>
        <dc:type rdf:resource="http://purl.org/dc/dcmitype/StillImage" />
        <dc:title></dc:title>
      </cc:Work>
    </rdf:RDF>
  </metadata>
  <g transform="translate(-48.134536,-131.32326)" id="layer1" inkscape:groupmode="layer" inkscape:label="Lager 1">
    <path inkscape:export-ydpi="300" inkscape:export-xdpi="300" style="opacity:0.18;fill:#ff0000;stroke:#ff0000;stroke-width:0.27651199999999998px;stroke-linecap:butt;stroke-linejoin:miter;stroke-opacity:1;fill-opacity:1" d="m 48.465964,140.27837 0.937378,1.03178 0.749978,1.68834 0.796949,1.59451 1.124944,2.25109 1.828098,2.34491 2.765572,1.78213 3.796792,1.17246 2.531251,1.21934 3.046837,1.03175 2.906313,1.87593 1.781128,1.17246 0.28129,-1.78215 1.359409,-1.31314 1.640555,-1.40693 0.750027,-1.12554 0.890528,-1.50075 0.750027,-1.54764 1.031269,-2.29801 0.609405,-1.17244 1.453061,-1.82903 1.453132,-1.64142 0.796829,-0.79728 -0.09336,-1.26624 -0.984299,-0.93795 -0.984348,-0.51588 -1.359408,0.0939 -0.937522,0.89105 -0.609286,0.79726 -0.984347,0.14053 -1.828194,-0.56275 -1.077999,-0.84418 -0.515634,-2.11039 -0.515635,-1.36006 -0.328116,-1.82901 -0.09336,-1.17246 -1.406235,-0.32831 -2.812564,-0.32826 -3.000084,-0.14052 -2.15607,-0.0939 -2.765643,0.0467 -0.984324,0.46897 -0.656231,1.26624 -1.078215,1.54767 -0.796709,1.26623 -0.937497,1.21934 -0.656256,0.98488 -1.6875,1.40695 -0.796949,0.28136 -1.734326,0.42208 z" id="path2019-2" />
  </g>
</svg>
