<?xml version="1.0" encoding="UTF-8" standalone="no"?>
<svg xmlns:dc="http://purl.org/dc/elements/1.1/" xmlns:cc="http://creativecommons.org/ns#" xmlns:rdf="http://www.w3.org/1999/02/22-rdf-syntax-ns#" xmlns:svg="http://www.w3.org/2000/svg" xmlns="http://www.w3.org/2000/svg" xmlns:sodipodi="http://sodipodi.sourceforge.net/DTD/sodipodi-0.dtd" xmlns:inkscape="http://www.inkscape.org/namespaces/inkscape" sodipodi:docname="region56.svg" inkscape:version="1.0 (4035a4f, 2020-05-01)" id="svg10042" version="1.1" viewBox="0 0 12.802753 12.358578" height="12.358578mm" width="12.802753mm">
  <defs id="defs10036" />
  <sodipodi:namedview inkscape:window-maximized="0" inkscape:window-y="25" inkscape:window-x="0" inkscape:window-height="777" inkscape:window-width="1252" showgrid="false" inkscape:document-rotation="0" inkscape:current-layer="layer1" inkscape:document-units="mm" inkscape:cy="91.926206" inkscape:cx="152.76561" inkscape:zoom="0.35" inkscape:pageshadow="2" inkscape:pageopacity="0.0" borderopacity="1.0" bordercolor="#666666" pagecolor="#ffffff" id="base" />
  <metadata id="metadata10039">
    <rdf:RDF>
      <cc:Work rdf:about="">
        <dc:format>image/svg+xml</dc:format>
        <dc:type rdf:resource="http://purl.org/dc/dcmitype/StillImage" />
        <dc:title></dc:title>
      </cc:Work>
    </rdf:RDF>
  </metadata>
  <g transform="translate(-65.414099,-123.84452)" id="layer1" inkscape:groupmode="layer" inkscape:label="Lager 1">
    <path inkscape:export-ydpi="300" inkscape:export-xdpi="300" style="opacity:0.18;fill:#f90000;stroke:#ff0000;stroke-width:0.11550400000000000px;stroke-linecap:butt;stroke-linejoin:miter;stroke-opacity:1;fill-opacity:1" d="m 70.386426,135.36035 0.88108,-0.0587 0.74407,0.098 0.509121,0.27425 0.528679,0.29386 0.4699,0.17631 0.64613,-0.0784 0.66574,-0.15672 0.528681,-0.4114 0.41117,-0.39179 0.76363,-0.48976 0.46996,-0.33304 -0.39162,-0.52893 -0.35246,-0.37221 -0.37201,-0.66606 -0.21539,-0.6269 -0.15666,-0.45056 -0.039,-0.43099 0.0783,-0.37221 0.235,-0.37222 0.23496,-0.35261 0.21539,-0.39181 0.25451,-0.45057 0.29373,-0.5877 0.15661,-0.52895 0.35246,-0.62688 0.31328,-0.70525 0.31328,-0.43098 0.2196,-0.58726 -0.16498,-0.0825 -0.74237,-0.66019 -0.78358,-0.28884 -0.78354,0.0825 -0.74237,0.37136 -0.76218,0.205 -0.392571,0.0838 -1.85585,0.16506 -0.45369,-0.28885 -0.61862,-0.5364 -1.031,-0.74271 -1.23728,-0.20631 -1.15475,0.12378 -0.61861,0.16505 -0.52848,0.45295 -0.43079,0.47017 0.0979,0.54851 0.23499,0.58771 0.11746,0.74443 -0.0587,0.62689 -0.3524,0.56811 -0.37206,0.48976 -0.039,0.52893 0.0587,0.50934 0.37201,0.86197 0.039,0.52893 0.50911,0.0393 0.6853,0.17631 0.66574,0.37221 0.68529,0.5877 0.50912,0.64649 0.489511,0.62688 0.332849,0.45056 0.37201,0.68567 z" id="path2057" />
  </g>
</svg>
