<?xml version="1.0" encoding="UTF-8" standalone="no"?>
<svg xmlns:dc="http://purl.org/dc/elements/1.1/" xmlns:cc="http://creativecommons.org/ns#" xmlns:rdf="http://www.w3.org/1999/02/22-rdf-syntax-ns#" xmlns:svg="http://www.w3.org/2000/svg" xmlns="http://www.w3.org/2000/svg" xmlns:sodipodi="http://sodipodi.sourceforge.net/DTD/sodipodi-0.dtd" xmlns:inkscape="http://www.inkscape.org/namespaces/inkscape" sodipodi:docname="region25.svg" inkscape:version="1.0 (4035a4f, 2020-05-01)" id="svg2208" version="1.1" viewBox="0 0 35.033257 15.834483" height="15.834483mm" width="35.033257mm">
  <defs id="defs2202" />
  <sodipodi:namedview inkscape:window-maximized="0" inkscape:window-y="25" inkscape:window-x="0" inkscape:window-height="777" inkscape:window-width="1252" showgrid="false" inkscape:document-rotation="0" inkscape:current-layer="layer1" inkscape:document-units="mm" inkscape:cy="-58.939254" inkscape:cx="21.919255" inkscape:zoom="0.35" inkscape:pageshadow="2" inkscape:pageopacity="0.0" borderopacity="1.0" bordercolor="#666666" pagecolor="#ffffff" id="base" />
  <metadata id="metadata2205">
    <rdf:RDF>
      <cc:Work rdf:about="">
        <dc:format>image/svg+xml</dc:format>
        <dc:type rdf:resource="http://purl.org/dc/dcmitype/StillImage" />
        <dc:title></dc:title>
      </cc:Work>
    </rdf:RDF>
  </metadata>
  <g transform="translate(-100.03386,-163.76101)" id="layer1" inkscape:groupmode="layer" inkscape:label="Lager 1">
    <path style="opacity:0.18;fill:#ff0000;fill-opacity:1;stroke:#ff0000;stroke-width:0.27672900000000000px;stroke-linecap:butt;stroke-linejoin:miter;stroke-opacity:1" d="m 105.55063,178.43186 v 0 l 1.03211,0.0939 0.37523,0.46934 0.1876,0.42241 0.70373,-0.28161 0.68011,-0.37547 0.42221,-0.42244 0.4222,-0.30506 0.60988,-0.047 0.93826,0.32852 1.12583,0.14064 0.77405,-0.2348 0.49256,-0.49282 0.4692,-0.32854 0.68011,0.21131 0.79757,0.047 0.60974,-0.51628 0.4457,-0.4928 0.68023,-0.0704 0.70373,-0.39895 0.49244,-0.39896 0.51604,-0.0939 0.51606,0.21131 0.37536,0.39895 0.14063,0.44589 0.21108,0.65706 0.11763,0.65711 h 0.65677 l 0.75057,-0.30509 0.58638,-0.32851 0.39872,-0.46937 0.63339,-0.21108 0.51592,0.39893 0.68022,0.23456 0.7741,0.21131 0.6802,0.047 0.56295,-0.14064 0.21108,-0.46934 0.11763,-0.53974 0.44572,-0.30508 0.60987,-0.16436 h 0.77407 l -0.0934,-0.56321 0.0467,-0.61015 0.21107,-0.46934 0.53942,-0.4928 0.79756,-0.51628 0.72711,-0.18784 0.72721,-0.23455 h 0.42219 l -0.0707,-0.56321 -0.024,-0.51628 0.0934,-0.37548 0.37527,-0.28163 0.75054,-0.0939 0.79743,-0.0467 0.44572,-0.0239 0.0467,-0.46935 0.56295,-0.49282 -1.82953,-0.93872 -1.26654,-0.89175 -1.31359,-1.17339 -1.82953,-2.20592 -0.56291,-0.89176 -1.31349,1.2203 -1.17277,0.89176 -0.98512,0.5163 -2.25175,0.61015 -1.31359,0.46934 -4.40966,0.79789 -1.54803,0.46937 -5.86396,-0.28163 -3.28371,0.61017 -1.03208,0.61015 -1.595,0.56319 -1.40734,0.14063 -1.59499,-9e-5 0.98512,2.15901 1.17279,1.78351 0.79758,1.59577 z" id="path2071-3" inkscape:export-xdpi="300" inkscape:export-ydpi="300" />
  </g>
</svg>
