<?xml version="1.0" encoding="UTF-8" standalone="no"?>
<svg xmlns:dc="http://purl.org/dc/elements/1.1/" xmlns:cc="http://creativecommons.org/ns#" xmlns:rdf="http://www.w3.org/1999/02/22-rdf-syntax-ns#" xmlns:svg="http://www.w3.org/2000/svg" xmlns="http://www.w3.org/2000/svg" xmlns:sodipodi="http://sodipodi.sourceforge.net/DTD/sodipodi-0.dtd" xmlns:inkscape="http://www.inkscape.org/namespaces/inkscape" sodipodi:docname="region63.svg" inkscape:version="1.0 (4035a4f, 2020-05-01)" id="svg4618" version="1.1" viewBox="0 0 13.621962 7.5122323" height="7.5122323mm" width="13.621962mm">
  <defs id="defs4612" />
  <sodipodi:namedview inkscape:window-maximized="0" inkscape:window-y="25" inkscape:window-x="0" inkscape:window-height="777" inkscape:window-width="1252" showgrid="false" inkscape:document-rotation="0" inkscape:current-layer="layer1" inkscape:document-units="mm" inkscape:cy="42.767764" inkscape:cx="-17.114862" inkscape:zoom="0.35" inkscape:pageshadow="2" inkscape:pageopacity="0.0" borderopacity="1.0" bordercolor="#666666" pagecolor="#ffffff" id="base" />
  <metadata id="metadata4615">
    <rdf:RDF>
      <cc:Work rdf:about="">
        <dc:format>image/svg+xml</dc:format>
        <dc:type rdf:resource="http://purl.org/dc/dcmitype/StillImage" />
        <dc:title></dc:title>
      </cc:Work>
    </rdf:RDF>
  </metadata>
  <g transform="translate(-110.36164,-136.85103)" id="layer1" inkscape:groupmode="layer" inkscape:label="Lager 1">
    <path inkscape:export-ydpi="300" inkscape:export-xdpi="300" id="path1977" d="m 123.8021,143.47153 -0.90729,-0.20631 -1.07232,-0.12378 h -1.19596 l -1.69088,0.0412 -2.02082,0.24757 -0.94856,0.28883 -1.56718,0.57767 v 0 l -0.70111,-0.66019 -1.03103,-0.49515 -0.65989,-0.37136 -0.70111,-0.66019 -0.86602,-1.27913 0.53613,-0.41261 0.7836,-1.15535 0.20618,-0.90776 1.11353,0.0412 0.86607,-0.16504 2.02083,-0.74273 1.07226,-0.57767 v 0 l 2.1858,0.28884 1.48468,0.3301 1.15475,0.82524 0.61862,1.07281 0.65988,0.90777 0.49487,0.90776 0.28872,0.49514 v 1.11409 z" style="opacity:0.18;fill:#ff0000;fill-opacity:1;stroke:#ff0000;stroke-width:0.11550400000000000px;stroke-linecap:butt;stroke-linejoin:miter;stroke-opacity:1" />
  </g>
</svg>
