<?xml version="1.0" encoding="UTF-8" standalone="no"?>
<svg xmlns:dc="http://purl.org/dc/elements/1.1/" xmlns:cc="http://creativecommons.org/ns#" xmlns:rdf="http://www.w3.org/1999/02/22-rdf-syntax-ns#" xmlns:svg="http://www.w3.org/2000/svg" xmlns="http://www.w3.org/2000/svg" xmlns:sodipodi="http://sodipodi.sourceforge.net/DTD/sodipodi-0.dtd" xmlns:inkscape="http://www.inkscape.org/namespaces/inkscape" sodipodi:docname="region17.svg" inkscape:version="1.0 (4035a4f, 2020-05-01)" id="svg2197" version="1.1" viewBox="0 0 30.066977 30.751783" height="30.751783mm" width="30.066977mm">
  <defs id="defs2191" />
  <sodipodi:namedview inkscape:window-maximized="0" inkscape:window-y="25" inkscape:window-x="0" inkscape:window-height="776" inkscape:window-width="1252" showgrid="false" inkscape:document-rotation="0" inkscape:current-layer="layer1" inkscape:document-units="mm" inkscape:cy="6.0340969" inkscape:cx="-63.180535" inkscape:zoom="0.35" inkscape:pageshadow="2" inkscape:pageopacity="0.0" borderopacity="1.0" bordercolor="#666666" pagecolor="#ffffff" id="base" />
  <metadata id="metadata2194">
    <rdf:RDF>
      <cc:Work rdf:about="">
        <dc:format>image/svg+xml</dc:format>
        <dc:type rdf:resource="http://purl.org/dc/dcmitype/StillImage" />
        <dc:title></dc:title>
      </cc:Work>
    </rdf:RDF>
  </metadata>
  <g transform="translate(-122.54985,-146.57015)" id="layer1" inkscape:groupmode="layer" inkscape:label="Lager 1">
    <path id="path2027-8" d="m 152.40465,159.4071 -1.85232,0.65696 -1.64317,1.47676 -1.92155,1.00307 -1.75452,1.22597 -1.1418,0.9195 -1.55966,1.39316 -1.61517,0.66873 -1.39252,0.52937 -2.28358,0.27865 -1.08616,0.0837 -1.89377,0.1394 -1.08604,0.25078 -0.94689,0.58513 -0.33426,0.8359 -0.97467,2.56341 -0.44561,1.11452 -0.52914,1.42102 -0.0553,0.61301 -0.47339,0.91948 -1.25318,0.72444 -1.53421,0.28989 -1.08302,0.0986 -0.21661,-0.5123 -0.0201,-0.61075 v -0.63049 l -0.11808,-0.41373 -0.29542,-0.47288 -0.31513,-1.02451 -0.23625,-0.13778 -0.27566,-0.31519 -0.35448,-0.6108 -0.23635,-0.37435 0.0593,-0.35464 0.25596,-0.21671 0.37419,-0.0986 0.39392,-0.23645 0.21661,-0.2955 0.0988,-0.57139 -0.29542,-0.49254 -0.53174,-0.0791 -0.64978,-0.1577 0.11807,-1.26097 -0.0785,-1.06388 0.1575,-0.45318 0.33475,-0.41373 0.31511,-0.25614 -0.0392,-0.29554 -0.33473,-0.35462 -0.57111,-0.35466 -0.23634,-0.29552 0.0784,-0.37435 0.27567,-0.31525 0.23635,-0.59107 -0.0593,-0.61077 -0.51193,-0.51224 -0.37417,-0.25613 -0.0394,-0.37435 0.17721,-0.27583 0.31511,-0.49255 0.59072,-0.31523 0.51204,-0.31525 0.33474,-0.35464 v -0.49254 l -0.25597,-0.47283 0.0392,-0.47288 0.17721,-0.37435 0.2954,-0.27582 0.43324,-0.17721 0.80734,-0.1577 0.53174,-0.0788 0.47261,-0.41373 0.25596,-0.25612 0.23634,-0.41378 0.19693,-0.31521 0.45295,-0.25614 0.23625,-0.35465 0.41355,-0.43345 0.19692,-0.29552 0.37419,-0.0201 0.41351,-0.17741 0.47271,-0.11807 0.63003,0.1577 0.98464,-0.84718 -0.0593,-0.49258 v -0.35464 l 0.2954,-0.43345 0.41354,-0.31523 0.57109,-0.0591 0.49232,0.25614 0.57109,0.0591 0.57109,-0.13778 0.33474,-0.43347 0.90584,-0.9457 0.2954,-0.39404 0.15749,-0.6896 0.23625,-0.45314 0.74838,-0.27585 h 0.4923 l 0.57099,-0.13779 0.51207,-0.39404 1.56497,-1.89267 1.08614,0.58513 1.89782,1.42573 1.29971,0.94573 1.39757,1.02784 2.42293,0.80804 1.41769,0.0555 -0.0784,4.37391 0.66949,1.49736 0.63015,0.94572 z" style="opacity:0.18;fill:#ff0000;stroke:#ff0000;stroke-width:0.23233000000000001px;stroke-linecap:butt;stroke-linejoin:miter;stroke-opacity:1;fill-opacity:1" inkscape:export-xdpi="300" inkscape:export-ydpi="300" />
  </g>
</svg>
