<?xml version="1.0" encoding="UTF-8" standalone="no"?>
<svg xmlns:dc="http://purl.org/dc/elements/1.1/" xmlns:cc="http://creativecommons.org/ns#" xmlns:rdf="http://www.w3.org/1999/02/22-rdf-syntax-ns#" xmlns:svg="http://www.w3.org/2000/svg" xmlns="http://www.w3.org/2000/svg" xmlns:sodipodi="http://sodipodi.sourceforge.net/DTD/sodipodi-0.dtd" xmlns:inkscape="http://www.inkscape.org/namespaces/inkscape" sodipodi:docname="region60.svg" inkscape:version="1.0 (4035a4f, 2020-05-01)" id="svg2162" version="1.1" viewBox="0 0 13.90371 7.4611135" height="7.4611135mm" width="13.90371mm">
  <defs id="defs2156" />
  <sodipodi:namedview inkscape:window-maximized="0" inkscape:window-y="25" inkscape:window-x="0" inkscape:window-height="777" inkscape:window-width="1252" showgrid="false" inkscape:document-rotation="0" inkscape:current-layer="layer1" inkscape:document-units="mm" inkscape:cy="-117.32883" inkscape:cx="-10.868133" inkscape:zoom="0.35" inkscape:pageshadow="2" inkscape:pageopacity="0.0" borderopacity="1.0" bordercolor="#666666" pagecolor="#ffffff" id="base" />
  <metadata id="metadata2159">
    <rdf:RDF>
      <cc:Work rdf:about="">
        <dc:format>image/svg+xml</dc:format>
        <dc:type rdf:resource="http://purl.org/dc/dcmitype/StillImage" />
        <dc:title></dc:title>
      </cc:Work>
    </rdf:RDF>
  </metadata>
  <g transform="translate(-108.70886,-179.20992)" id="layer1" inkscape:groupmode="layer" inkscape:label="Lager 1">
    <path inkscape:export-ydpi="300" inkscape:export-xdpi="300" style="opacity:0.18;fill:#ff0000;stroke:#ff0000;stroke-width:0.11550400000000000px;stroke-linecap:butt;stroke-linejoin:miter;stroke-opacity:1;fill-opacity:1" d="m 110.3911,184.71427 1.03105,-0.0412 0.8248,0.0825 0.98978,0.12378 h 0.82485 l 1.23724,0.28884 1.15475,0.5364 0.86607,0.6602 0.41243,0.24757 1.44342,-0.0825 1.11353,-0.66019 1.15475,-0.61893 0.37116,-0.1238 v -0.33009 -0.57767 l 0.0825,-0.70145 v -0.49515 -0.61893 l 0.61861,-1.69174 -0.57734,0.2063 h -0.61863 l -1.81463,-0.90775 -1.19601,-0.41264 -1.97961,-0.33008 -2.88684,0.0412 -2.02082,0.24756 -2.51574,0.86651 0.41243,0.6602 -0.20624,1.1966 -0.32994,0.57767 1.1548,0.99028 z" id="path1987" />
  </g>
</svg>
