<?xml version="1.0" encoding="UTF-8" standalone="no"?>
<svg xmlns:dc="http://purl.org/dc/elements/1.1/" xmlns:cc="http://creativecommons.org/ns#" xmlns:rdf="http://www.w3.org/1999/02/22-rdf-syntax-ns#" xmlns:svg="http://www.w3.org/2000/svg" xmlns="http://www.w3.org/2000/svg" xmlns:sodipodi="http://sodipodi.sourceforge.net/DTD/sodipodi-0.dtd" xmlns:inkscape="http://www.inkscape.org/namespaces/inkscape" sodipodi:docname="region30.svg" inkscape:version="1.0 (4035a4f, 2020-05-01)" id="svg1582" version="1.1" viewBox="0 0 33.089218 20.139536" height="20.139536mm" width="33.089218mm">
  <defs id="defs1576" />
  <sodipodi:namedview inkscape:window-maximized="0" inkscape:window-y="25" inkscape:window-x="0" inkscape:window-height="777" inkscape:window-width="1252" showgrid="false" inkscape:document-rotation="0" inkscape:current-layer="layer1" inkscape:document-units="mm" inkscape:cy="91.22824" inkscape:cx="2.5307721" inkscape:zoom="0.35" inkscape:pageshadow="2" inkscape:pageopacity="0.0" borderopacity="1.0" bordercolor="#666666" pagecolor="#ffffff" id="base" />
  <metadata id="metadata1579">
    <rdf:RDF>
      <cc:Work rdf:about="">
        <dc:format>image/svg+xml</dc:format>
        <dc:type rdf:resource="http://purl.org/dc/dcmitype/StillImage" />
        <dc:title></dc:title>
      </cc:Work>
    </rdf:RDF>
  </metadata>
  <g transform="translate(-76.059567,-124.02919)" id="layer1" inkscape:groupmode="layer" inkscape:label="Lager 1">
    <path inkscape:export-ydpi="300" inkscape:export-xdpi="300" id="path2087-0" d="m 76.194712,131.1003 0.940938,-0.1507 0.865665,-0.67779 1.467852,-1.58157 1.806564,-1.28033 2.258225,-0.60249 1.693711,-0.18818 1.467853,-0.33891 1.731329,-1.05438 1.242071,-1.01672 0.301055,0.71545 0.338731,0.45187 0.564513,-0.22592 0.52701,-0.18818 0.48922,0.26357 0.112834,0.56484 v 0.71547 l 0.489318,0.5272 0.828084,0.60249 0.602188,0.52721 0.564493,0.64013 0.978635,0.48955 1.129102,0.0753 0.940938,0.0754 0.301075,0.56484 0.338731,0.6778 0.564609,0.52721 0.827951,0.1507 0.263438,0.33888 0.150508,0.45189 0.639887,0.33891 0.82797,0.37656 0.52693,0.41419 0.71516,0.52719 0.56451,0.0377 0.33873,0.33892 0.33873,0.64014 0.48934,0.30126 0.52691,-0.0754 h 0.5269 l 0.33876,0.30125 0.26346,0.45187 0.0375,0.33891 0.52694,0.56486 0.67748,0.22591 0.45162,-0.48953 0.52692,0.0375 0.45171,0.3389 0.26346,1.20499 v 0 l -1.24209,0.1507 -1.46783,0.33893 -1.61846,0.18818 -1.24197,0.71546 -0.45165,0.52719 -0.48931,0.9414 -1.09149,1.4686 -0.82797,1.69456 -2.183043,-0.11284 -1.618325,-0.26357 -1.01621,-0.82847 -0.526935,-1.39329 -0.263534,-2.78654 -0.865665,-0.82845 -1.655998,-0.9414 -1.430177,-0.18838 -1.58084,0.0753 -2.634534,0.45189 -1.919571,0.48953 -1.01625,0.41422 -2.55928,0.22595 -0.828047,0.52719 -0.451602,-0.48953 -2.07006,-1.28032 -0.940938,-1.54392 -0.301152,-2.2217 z" style="opacity:0.18;fill:#ff0000;stroke:#ff0000;stroke-width:0.22202200000000000px;stroke-linecap:butt;stroke-linejoin:miter;stroke-opacity:1;fill-opacity:1" />
  </g>
</svg>
