<?xml version="1.0" encoding="UTF-8" standalone="no"?>
<svg xmlns:dc="http://purl.org/dc/elements/1.1/" xmlns:cc="http://creativecommons.org/ns#" xmlns:rdf="http://www.w3.org/1999/02/22-rdf-syntax-ns#" xmlns:svg="http://www.w3.org/2000/svg" xmlns="http://www.w3.org/2000/svg" xmlns:sodipodi="http://sodipodi.sourceforge.net/DTD/sodipodi-0.dtd" xmlns:inkscape="http://www.inkscape.org/namespaces/inkscape" sodipodi:docname="region26.svg" inkscape:version="1.0 (4035a4f, 2020-05-01)" id="svg2831" version="1.1" viewBox="0 0 40.651688 21.308252" height="21.308252mm" width="40.651688mm">
  <defs id="defs2825" />
  <sodipodi:namedview inkscape:window-maximized="0" inkscape:window-y="25" inkscape:window-x="0" inkscape:window-height="777" inkscape:window-width="1252" showgrid="false" inkscape:document-rotation="0" inkscape:current-layer="layer1" inkscape:document-units="mm" inkscape:cy="117.19266" inkscape:cx="-78.892231" inkscape:zoom="0.35" inkscape:pageshadow="2" inkscape:pageopacity="0.0" borderopacity="1.0" bordercolor="#666666" pagecolor="#ffffff" id="base" />
  <metadata id="metadata2828">
    <rdf:RDF>
      <cc:Work rdf:about="">
        <dc:format>image/svg+xml</dc:format>
        <dc:type rdf:resource="http://purl.org/dc/dcmitype/StillImage" />
        <dc:title></dc:title>
      </cc:Work>
    </rdf:RDF>
  </metadata>
  <g transform="translate(-126.7069,-117.15944)" id="layer1" inkscape:groupmode="layer" inkscape:label="Lager 1">
    <path id="path2023-1" d="m 151.12269,119.59582 -1.72395,0.58424 -0.86196,0.0833 -4.08763,-0.0279 -3.97641,0.61205 -2.97532,1.41887 -1.89089,0.72332 -0.41711,-0.38949 -0.63955,-0.13918 -0.50053,0.41734 -0.83422,-0.27822 -0.36147,-0.5564 -0.61171,-0.22257 -0.52833,0.33385 -1.41814,-1.47451 -0.1669,-0.52859 0.0833,-0.66771 -0.47269,-0.5564 -0.52833,-0.25041 -0.25027,-0.41732 -0.38938,-0.72332 -0.47269,-0.25039 -0.44494,0.1669 -0.58388,0.58426 0.0834,0.52859 0.33363,0.44514 0.52833,0.58424 0.38928,0.66768 0.50053,0.52861 0.0279,0.4173 -0.4171,0.27823 -0.69511,0.36167 -0.33373,0.97372 0.0833,0.69553 0.0834,0.72336 0.27806,0.72332 0.50055,0.2782 0.50057,0.30604 0.278,0.83462 0.0283,0.30604 -0.30582,0.30602 -0.66737,0.0836 -0.27806,0.2782 -0.33373,0.41732 -0.0833,0.38949 v 0.33385 l 0.1669,0.47295 v 0.27821 l -0.25027,0.36167 -0.47267,0.41732 -0.1669,0.50077 1.08453,0.58424 1.52933,1.14066 1.08451,0.80681 1.9743,1.44666 2.41912,0.80681 2.9754,0.19481 2.69725,-0.11126 2.69728,-0.22255 1.30694,-0.50079 1.9743,-0.19481 h 2.6972 l 2.78071,0.11126 2.16888,0.33385 2.02998,0.6399 0.94544,0.66768 2.11333,1.00157 0.61171,0.19481 1.05665,0.41732 1.55721,0.50077 1.50159,-0.38948 1.50151,-0.0836 1.5572,0.0279 -1.05667,-1.3076 -3.25339,-2.78207 -2.25238,-1.72488 -1.66841,-1.1963 -1.83524,-1.19629 -1.80741,-1.22412 -2.14114,-1.66927 -1.41814,-1.30756 -0.584,-1.05721 -0.25023,-0.89024 0.11127,-1.4467 -0.0833,-0.6955 z" style="opacity:0.18;fill:#ff0000;fill-opacity:1;stroke:#ff0000;stroke-width:0.23197699999999999px;stroke-linecap:butt;stroke-linejoin:miter;stroke-opacity:1" inkscape:export-xdpi="300" inkscape:export-ydpi="300" />
  </g>
</svg>
