<?xml version="1.0" encoding="UTF-8" standalone="no"?>
<svg xmlns:dc="http://purl.org/dc/elements/1.1/" xmlns:cc="http://creativecommons.org/ns#" xmlns:rdf="http://www.w3.org/1999/02/22-rdf-syntax-ns#" xmlns:svg="http://www.w3.org/2000/svg" xmlns="http://www.w3.org/2000/svg" xmlns:sodipodi="http://sodipodi.sourceforge.net/DTD/sodipodi-0.dtd" xmlns:inkscape="http://www.inkscape.org/namespaces/inkscape" sodipodi:docname="region35.svg" inkscape:version="1.0 (4035a4f, 2020-05-01)" id="svg4628" version="1.1" viewBox="0 0 19.712149 23.858953" height="23.858953mm" width="19.712149mm">
  <defs id="defs4622" />
  <sodipodi:namedview inkscape:window-maximized="0" inkscape:window-y="25" inkscape:window-x="0" inkscape:window-height="777" inkscape:window-width="1252" showgrid="false" inkscape:document-rotation="0" inkscape:current-layer="layer1" inkscape:document-units="mm" inkscape:cy="126.51636" inkscape:cx="-117.09937" inkscape:zoom="0.35" inkscape:pageshadow="2" inkscape:pageopacity="0.0" borderopacity="1.0" bordercolor="#666666" pagecolor="#ffffff" id="base" />
  <metadata id="metadata4625">
    <rdf:RDF>
      <cc:Work rdf:about="">
        <dc:format>image/svg+xml</dc:format>
        <dc:type rdf:resource="http://purl.org/dc/dcmitype/StillImage" />
        <dc:title></dc:title>
      </cc:Work>
    </rdf:RDF>
  </metadata>
  <g transform="translate(-136.81588,-114.69255)" id="layer1" inkscape:groupmode="layer" inkscape:label="Lager 1">
    <path style="opacity:0.18;fill:#ff0000;fill-opacity:1;stroke:#ff0000;stroke-width:0.25035099999999999px;stroke-linecap:butt;stroke-linejoin:miter;stroke-opacity:1" d="m 137.83596,132.39193 0.0195,-0.70239 -0.4031,-0.48829 -0.29716,-0.59445 0.0217,-0.40338 0.31832,-0.23355 0.12723,-0.3609 0.21219,-0.53079 0.25468,-0.38213 0.80632,-0.23352 0.46685,-0.21241 0.10642,-0.27598 -0.50924,-0.6794 -0.63665,-0.99783 0.12723,-0.42461 -0.14848,-1.0403 0.36069,-0.4246 0.2122,-0.55197 0.31818,-0.40339 -0.44561,-0.36092 -0.5941,-0.29723 -0.12723,-0.55201 0.0217,-0.4883 0.40322,-0.31845 0.33947,-0.3609 0.10642,-0.65815 -0.33949,-0.48831 -0.78517,-0.59447 -0.12723,-0.59445 -0.33949,-0.31845 -0.36071,-0.4246 0.0423,-0.55201 0.44557,-0.48829 0.10642,-0.59445 -0.0639,-0.63693 0.46689,0.44585 h 0.33943 l 0.91248,-0.74305 0.488,-0.57323 0.97608,0.57323 0.46689,0.48828 0.57297,0.40337 0.70033,0.61569 0.74264,0.59445 0.29709,0.14847 0.97608,0.44583 0.59417,0.67939 0.72142,0.1062 0.33955,0.25479 0.48801,0.38214 0.27583,0.50953 0.3396,0.31845 0.27578,0.31846 0.57302,0.67939 0.33947,0.44583 0.76392,0.36093 0.65789,0.276 0.488,0.46705 0.10621,0.38216 0.12723,0.57321 0.55175,0.31845 0.42435,0.16993 0.31833,0.29722 0.42435,0.55201 0.14847,0.65813 0.21219,0.78553 0.12745,0.53077 -0.16971,0.46707 -0.0845,0.70061 0.0639,0.48831 0.36075,0.2972 0.8488,0.29725 0.55175,0.3609 0.53038,0.61567 0.31832,0.29725 0.31833,0.1062 0.40319,0.50953 0.0217,0.50955 -0.14847,0.55199 -0.23342,0.50953 -0.0217,0.59445 0.23343,0.55198 0.63654,0.7431 -0.488,0.31844 -0.46685,0.59445 -0.0845,0.55199 0.0217,0.80675 0.16972,0.50955 -0.36639,0.82641 v 0 l -1.6204,-0.54043 -1.50054,-0.39032 -1.15987,-0.0655 -1.14581,-0.23352 -0.54521,-0.0913 -0.87021,-0.27022 -1.2904,-0.54046 -1.02036,-0.54041 -1.77045,-0.2402 -2.35469,-0.14327 -1.0186,0.0637 -1.0082,0.0195 -0.66019,-0.27022 -1.05035,-1.47118 z" id="path2101" inkscape:export-xdpi="300" inkscape:export-ydpi="300" />
  </g>
</svg>
