<?xml version="1.0" encoding="UTF-8" standalone="no"?>
<svg xmlns:dc="http://purl.org/dc/elements/1.1/" xmlns:cc="http://creativecommons.org/ns#" xmlns:rdf="http://www.w3.org/1999/02/22-rdf-syntax-ns#" xmlns:svg="http://www.w3.org/2000/svg" xmlns="http://www.w3.org/2000/svg" xmlns:sodipodi="http://sodipodi.sourceforge.net/DTD/sodipodi-0.dtd" xmlns:inkscape="http://www.inkscape.org/namespaces/inkscape" sodipodi:docname="region41.svg" inkscape:version="1.0 (4035a4f, 2020-05-01)" id="svg8308" version="1.1" viewBox="0 0 12.673016 11.012895" height="11.012895mm" width="12.673016mm">
  <defs id="defs8302" />
  <sodipodi:namedview inkscape:window-maximized="0" inkscape:window-y="25" inkscape:window-x="0" inkscape:window-height="777" inkscape:window-width="1252" showgrid="false" inkscape:document-rotation="0" inkscape:current-layer="layer1" inkscape:document-units="mm" inkscape:cy="46.526072" inkscape:cx="12.520447" inkscape:zoom="0.35" inkscape:pageshadow="2" inkscape:pageopacity="0.0" borderopacity="1.0" bordercolor="#666666" pagecolor="#ffffff" id="base" />
  <metadata id="metadata8305">
    <rdf:RDF>
      <cc:Work rdf:about="">
        <dc:format>image/svg+xml</dc:format>
        <dc:type rdf:resource="http://purl.org/dc/dcmitype/StillImage" />
        <dc:title></dc:title>
      </cc:Work>
    </rdf:RDF>
  </metadata>
  <g transform="translate(-102.52063,-135.85664)" id="layer1" inkscape:groupmode="layer" inkscape:label="Lager 1">
    <path id="path2009" d="m 102.53681,146.04812 0.69989,-0.20424 2.33296,-1.28377 0.029,-1.13789 0.3791,-0.6419 1.07902,-1.22541 1.04981,-1.37131 1.37063,-0.81694 0.29162,-0.32096 0.6668,-0.42758 0.50911,-0.52893 0.35241,-0.3918 0.21539,-0.39181 0.29373,-0.48976 0.13705,-0.33303 0.27413,-0.45057 0.41118,-0.0393 1.03774,-0.0784 0.68535,0.0392 0.64613,0.11756 0.13705,0.37221 -0.0783,0.82279 -0.1566,0.80319 -0.0587,0.84239 -0.13705,0.88154 -0.29373,0.74443 -0.31327,0.72485 -0.31329,0.58769 -0.15662,0.6073 -0.15661,0.52894 v 0.50934 l 0.31323,0.66606 v 0 l -1.3902,0.6073 -1.07692,0.66607 -0.4895,0.23508 -0.52869,0.19589 -0.72445,0.35263 -0.97143,0.58869 -0.55379,-0.13853 -0.55383,-0.30475 -0.71996,-0.22164 -1.24604,-0.24934 h -1.05225 z" style="opacity:0.18;fill:#f50000;stroke:#ff0000;stroke-width:0.11550400000000000px;stroke-linecap:butt;stroke-linejoin:miter;stroke-opacity:1;fill-opacity:1" inkscape:export-xdpi="300" inkscape:export-ydpi="300" />
  </g>
</svg>
