<?xml version="1.0" encoding="UTF-8" standalone="no"?>
<svg xmlns:dc="http://purl.org/dc/elements/1.1/" xmlns:cc="http://creativecommons.org/ns#" xmlns:rdf="http://www.w3.org/1999/02/22-rdf-syntax-ns#" xmlns:svg="http://www.w3.org/2000/svg" xmlns="http://www.w3.org/2000/svg" xmlns:sodipodi="http://sodipodi.sourceforge.net/DTD/sodipodi-0.dtd" xmlns:inkscape="http://www.inkscape.org/namespaces/inkscape" sodipodi:docname="region43.svg" inkscape:version="1.0 (4035a4f, 2020-05-01)" id="svg2121" version="1.1" viewBox="0 0 17.312008 12.007937" height="12.007937mm" width="17.312008mm">
  <defs id="defs2115" />
  <sodipodi:namedview inkscape:window-maximized="0" inkscape:window-y="25" inkscape:window-x="0" inkscape:window-height="777" inkscape:window-width="1252" showgrid="false" inkscape:document-rotation="0" inkscape:current-layer="layer1" inkscape:document-units="mm" inkscape:cy="-11.59356" inkscape:cx="49.85847" inkscape:zoom="0.35" inkscape:pageshadow="2" inkscape:pageopacity="0.0" borderopacity="1.0" bordercolor="#666666" pagecolor="#ffffff" id="base" />
  <metadata id="metadata2118">
    <rdf:RDF>
      <cc:Work rdf:about="">
        <dc:format>image/svg+xml</dc:format>
        <dc:type rdf:resource="http://purl.org/dc/dcmitype/StillImage" />
        <dc:title></dc:title>
      </cc:Work>
    </rdf:RDF>
  </metadata>
  <g transform="translate(-92.641613,-151.23413)" id="layer1" inkscape:groupmode="layer" inkscape:label="Lager 1">
    <path inkscape:export-ydpi="300" inkscape:export-xdpi="300" style="opacity:0.18;fill:#ff0000;stroke:#ff0000;stroke-width:0.11550400000000000px;stroke-linecap:butt;stroke-linejoin:miter;stroke-opacity:1;fill-opacity:1" d="m 109.03399,152.2525 v 0 l -0.039,0.78361 0.19579,0.43098 0.21539,0.47017 0.25456,0.52893 0.15667,0.45058 0.0195,0.5877 0.0587,0.62689 -0.039,0.3918 -0.29368,0.45057 -0.23495,0.50935 -0.41123,0.9795 -0.43074,0.92074 -0.13705,0.45058 -0.5874,-0.13714 -1.17486,-0.13712 -1.21397,-0.0587 -0.93986,-0.0392 -0.52867,0.0196 h -0.62658 l -0.41118,0.19591 -0.27412,0.52892 -0.45033,0.66607 -0.33285,0.50934 -0.39163,0.50936 -0.27411,0.41139 -0.70491,0.5877 -0.33289,0.11754 -0.724456,0.17631 -0.62657,-0.0392 -0.82236,-0.33303 -0.88113,-0.27427 -0.58741,-0.13712 h -1.33147 l -0.82235,-0.0392 h -0.66573 l -0.76364,-0.0196 -0.17758,-0.46947 0.22149,-0.66491 0.17998,-0.8727 0.99689,-2.34104 0.55384,-1.32982 0.83071,-1.1636 1.07577,-0.93575 1.11607,-0.29385 1.09652,0.0196 0.46991,-0.13714 0.62658,-0.35262 0.528666,-0.37222 0.86153,-0.7836 0.41123,-0.15673 1.21396,-0.23508 1.89928,-0.56811 1.68392,-0.3918 0.52868,0.0587 0.76363,0.17631 0.68529,0.29385 z" id="path2017" />
  </g>
</svg>
