<?xml version="1.0" encoding="UTF-8" standalone="no"?>
<svg xmlns:dc="http://purl.org/dc/elements/1.1/" xmlns:cc="http://creativecommons.org/ns#" xmlns:rdf="http://www.w3.org/1999/02/22-rdf-syntax-ns#" xmlns:svg="http://www.w3.org/2000/svg" xmlns="http://www.w3.org/2000/svg" xmlns:sodipodi="http://sodipodi.sourceforge.net/DTD/sodipodi-0.dtd" xmlns:inkscape="http://www.inkscape.org/namespaces/inkscape" sodipodi:docname="region58.svg" inkscape:version="1.0 (4035a4f, 2020-05-01)" id="svg946" version="1.1" viewBox="0 0 8.3211823 8.7043228" height="8.7043228mm" width="8.3211823mm">
  <defs id="defs940" />
  <sodipodi:namedview inkscape:window-maximized="0" inkscape:window-y="25" inkscape:window-x="0" inkscape:window-height="777" inkscape:window-width="1252" showgrid="false" inkscape:document-rotation="0" inkscape:current-layer="layer1" inkscape:document-units="mm" inkscape:cy="153.59196" inkscape:cx="-47.132087" inkscape:zoom="0.35" inkscape:pageshadow="2" inkscape:pageopacity="0.0" borderopacity="1.0" bordercolor="#666666" pagecolor="#ffffff" id="base" />
  <metadata id="metadata943">
    <rdf:RDF>
      <cc:Work rdf:about="">
        <dc:format>image/svg+xml</dc:format>
        <dc:type rdf:resource="http://purl.org/dc/dcmitype/StillImage" />
        <dc:title></dc:title>
      </cc:Work>
    </rdf:RDF>
  </metadata>
  <g transform="translate(-118.3037,-107.52879)" id="layer1" inkscape:groupmode="layer" inkscape:label="Lager 1">
    <path inkscape:export-ydpi="300" inkscape:export-xdpi="300" style="opacity:0.18;fill:#ff0000;stroke:#ff0000;stroke-width:0.11550400000000000px;stroke-linecap:butt;stroke-linejoin:miter;stroke-opacity:1;fill-opacity:1" d="m 121.49585,115.84036 0.86411,0.0407 0.84567,-0.0291 0.55409,-0.11671 1.02068,-0.17506 1.02065,-0.17506 -0.0874,-0.84612 -0.3791,-0.70024 -0.11666,-0.67107 0.0875,-0.496 0.23331,-0.3793 0.26241,-0.35012 0.75822,-0.40847 -0.0875,-0.40847 -0.61242,-0.96284 -0.40822,-0.72941 -0.20414,-0.49601 0.043,-1.06025 v 0 l -0.98983,-0.28884 -0.94856,0.16506 -0.70105,0.33009 -0.74236,0.45388 -0.86607,0.6602 -0.74233,0.82524 -1.23729,1.73301 -0.61861,1.69174 v 1.11408 l -0.0825,0.70144 v 0.90778 l 1.05311,-0.0851 1.25643,-0.24495 z" id="path1991" />
  </g>
</svg>
