<?xml version="1.0" encoding="UTF-8" standalone="no"?>
<svg xmlns:dc="http://purl.org/dc/elements/1.1/" xmlns:cc="http://creativecommons.org/ns#" xmlns:rdf="http://www.w3.org/1999/02/22-rdf-syntax-ns#" xmlns:svg="http://www.w3.org/2000/svg" xmlns="http://www.w3.org/2000/svg" xmlns:sodipodi="http://sodipodi.sourceforge.net/DTD/sodipodi-0.dtd" xmlns:inkscape="http://www.inkscape.org/namespaces/inkscape" sodipodi:docname="region52.svg" inkscape:version="1.0 (4035a4f, 2020-05-01)" id="svg7602" version="1.1" viewBox="0 0 5.7578554 7.7517653" height="7.7517653mm" width="5.7578554mm">
  <defs id="defs7596" />
  <sodipodi:namedview inkscape:window-maximized="0" inkscape:window-y="25" inkscape:window-x="0" inkscape:window-height="777" inkscape:window-width="1252" showgrid="false" inkscape:document-rotation="0" inkscape:current-layer="layer1" inkscape:document-units="mm" inkscape:cy="-36.779563" inkscape:cx="-31.976144" inkscape:zoom="0.35" inkscape:pageshadow="2" inkscape:pageopacity="0.0" borderopacity="1.0" bordercolor="#666666" pagecolor="#ffffff" id="base" />
  <metadata id="metadata7599">
    <rdf:RDF>
      <cc:Work rdf:about="">
        <dc:format>image/svg+xml</dc:format>
        <dc:type rdf:resource="http://purl.org/dc/dcmitype/StillImage" />
        <dc:title></dc:title>
      </cc:Work>
    </rdf:RDF>
  </metadata>
  <g transform="translate(-114.29369,-157.89793)" id="layer1" inkscape:groupmode="layer" inkscape:label="Lager 1">
    <path inkscape:export-ydpi="300" inkscape:export-xdpi="300" id="path2069" d="m 114.68404,163.03823 0.23496,0.37221 0.35244,0.47017 0.41118,0.45057 0.54824,0.48976 0.52869,0.3722 0.76362,0.39181 0.27411,-0.13713 0.35246,-0.0587 0.17622,-0.17631 0.11751,-0.33304 0.21539,-0.23507 h 0.31328 l 0.27412,-0.0196 0.15663,-0.17629 0.0587,-0.19592 0.039,-0.35261 0.13705,-0.39181 0.11751,-0.41139 0.19577,-0.29385 -0.21539,-0.2155 -0.0587,-0.23508 -0.0783,-0.43098 -0.11751,-0.66607 v -0.25467 l 0.0783,-0.19589 0.21539,-0.15673 0.21535,-0.17631 -0.039,-0.29386 -0.13707,-0.17631 -0.11744,-0.17631 -0.039,-0.23508 -0.039,-0.31344 -0.1175,-0.1959 -0.15661,-0.11754 -0.15667,-0.25468 -0.15662,-0.0979 -0.27416,-0.0784 -0.25451,-0.11754 -0.27413,-0.13713 -0.23501,-0.0587 -0.19577,0.0392 -0.23495,0.15672 h -0.33286 l -0.27415,-0.1959 -0.23496,-0.0784 -0.17622,0.15672 h -0.21539 l -0.25451,-0.33302 -0.3329,0.0979 -0.43073,0.25468 -0.35246,0.27426 -0.39161,0.95992 -0.21539,1.21459 v 0.76402 l 0.039,0.5877 0.0979,0.54852 z" style="opacity:0.18;fill:#ff0000;stroke:#ff0000;stroke-width:0.11550400000000000px;stroke-linecap:butt;stroke-linejoin:miter;stroke-opacity:1;fill-opacity:1" />
  </g>
</svg>
