<?xml version="1.0" encoding="UTF-8" standalone="no"?>
<svg xmlns:dc="http://purl.org/dc/elements/1.1/" xmlns:cc="http://creativecommons.org/ns#" xmlns:rdf="http://www.w3.org/1999/02/22-rdf-syntax-ns#" xmlns:svg="http://www.w3.org/2000/svg" xmlns="http://www.w3.org/2000/svg" xmlns:sodipodi="http://sodipodi.sourceforge.net/DTD/sodipodi-0.dtd" xmlns:inkscape="http://www.inkscape.org/namespaces/inkscape" sodipodi:docname="region48.svg" inkscape:version="1.0 (4035a4f, 2020-05-01)" id="svg5162" version="1.1" viewBox="0 0 13.062273 9.1585073" height="9.1585073mm" width="13.062273mm">
  <defs id="defs5156" />
  <sodipodi:namedview inkscape:window-maximized="0" inkscape:window-y="25" inkscape:window-x="0" inkscape:window-height="777" inkscape:window-width="1252" showgrid="false" inkscape:document-rotation="0" inkscape:current-layer="layer1" inkscape:document-units="mm" inkscape:cy="68.735991" inkscape:cx="124.68461" inkscape:zoom="0.35" inkscape:pageshadow="2" inkscape:pageopacity="0.0" borderopacity="1.0" bordercolor="#666666" pagecolor="#ffffff" id="base" />
  <metadata id="metadata5159">
    <rdf:RDF>
      <cc:Work rdf:about="">
        <dc:format>image/svg+xml</dc:format>
        <dc:type rdf:resource="http://purl.org/dc/dcmitype/StillImage" />
        <dc:title></dc:title>
      </cc:Work>
    </rdf:RDF>
  </metadata>
  <g transform="translate(-72.843863,-129.98027)" id="layer1" inkscape:groupmode="layer" inkscape:label="Lager 1">
    <path inkscape:export-ydpi="300" inkscape:export-xdpi="300" style="opacity:0.18;fill:#ff0000;stroke:#ff0000;stroke-width:0.11550400000000000px;stroke-linecap:butt;stroke-linejoin:miter;stroke-opacity:1;fill-opacity:1" d="m 74.2143,139.05934 0.93322,-0.3793 0.99147,-0.40847 1.04984,-0.29178 0.90406,-0.11671 0.58318,-0.17505 0.61241,-0.11671 0.78741,0.17506 0.0875,-0.55436 0.37912,-0.46682 0.67073,-0.43765 0.52489,-0.26258 0.58324,-0.43766 0.84572,-0.35012 0.32079,-0.17507 0.32078,-0.20422 0.5832,-0.75861 0.34995,-0.496 0.37912,-0.67106 0.67074,-1.10872 -0.69991,0.11672 -0.78738,0.0291 -0.72902,-0.0875 -0.55409,-0.0291 h -0.61242 l -0.61241,-0.20423 -0.729,-0.17507 -0.81656,-0.26258 -1.07833,-0.71863 v 0 l -1.3197,-0.16505 -0.94856,-0.28883 -1.11353,0.0412 -0.7836,0.53642 -0.7011,1.19659 -0.24745,1.65049 -0.45366,0.61892 -0.24745,0.78398 -0.41242,0.53642 -0.043,1.06024 0.20413,0.496 1.0207,1.69226 z" id="path1993" />
  </g>
</svg>
