<?xml version="1.0" encoding="UTF-8" standalone="no"?>
<svg xmlns:dc="http://purl.org/dc/elements/1.1/" xmlns:cc="http://creativecommons.org/ns#" xmlns:rdf="http://www.w3.org/1999/02/22-rdf-syntax-ns#" xmlns:svg="http://www.w3.org/2000/svg" xmlns="http://www.w3.org/2000/svg" xmlns:sodipodi="http://sodipodi.sourceforge.net/DTD/sodipodi-0.dtd" xmlns:inkscape="http://www.inkscape.org/namespaces/inkscape" sodipodi:docname="region55.svg" inkscape:version="1.0 (4035a4f, 2020-05-01)" id="svg9434" version="1.1" viewBox="0 0 21.328463 8.7318745" height="8.7318745mm" width="21.328463mm">
  <defs id="defs9428" />
  <sodipodi:namedview inkscape:window-maximized="0" inkscape:window-y="25" inkscape:window-x="0" inkscape:window-height="777" inkscape:window-width="1252" showgrid="false" inkscape:document-rotation="0" inkscape:current-layer="layer1" inkscape:document-units="mm" inkscape:cy="10.786883" inkscape:cx="146.02004" inkscape:zoom="0.35" inkscape:pageshadow="2" inkscape:pageopacity="0.0" borderopacity="1.0" bordercolor="#666666" pagecolor="#ffffff" id="base" />
  <metadata id="metadata9431">
    <rdf:RDF>
      <cc:Work rdf:about="">
        <dc:format>image/svg+xml</dc:format>
        <dc:type rdf:resource="http://purl.org/dc/dcmitype/StillImage" />
        <dc:title></dc:title>
      </cc:Work>
    </rdf:RDF>
  </metadata>
  <g transform="translate(-67.198864,-145.31264)" id="layer1" inkscape:groupmode="layer" inkscape:label="Lager 1">
    <path inkscape:export-ydpi="300" inkscape:export-xdpi="300" style="opacity:0.18;fill:#ff0000;stroke:#ff0000;stroke-width:0.11550400000000000px;stroke-linecap:butt;stroke-linejoin:miter;stroke-opacity:1;fill-opacity:1" d="m 67.309608,150.19793 v 0 l 1.27846,0.45388 0.61861,0.28883 0.61867,-0.16504 1.15475,-0.12379 1.23723,0.20631 1.03105,0.74272 0.61861,0.5364 0.45365,0.28884 0.53613,-0.0412 1.31972,-0.12379 1.154751,-0.28883 0.74236,-0.37135 0.7836,-0.0825 0.78359,0.28884 0.74231,0.66019 0.16498,0.0825 0.53612,-0.61893 0.57741,-0.0412 0.74232,0.33011 0.41242,0.49514 0.49492,0.45388 h 0.49486 l 0.90735,-0.0412 h 0.41237 l 0.45365,0.37135 0.49491,0.24758 0.2062,0.20631 0.3712,-0.57768 0.1237,-0.49514 0.37116,-0.37136 0.24747,-0.2063 0.32993,-0.24758 h 0.32995 l 0.41242,-0.0412 -0.041,-0.70146 -0.20619,-0.70146 -0.41243,-0.57766 -0.90733,-0.57767 -0.61863,-0.41262 -0.90728,-0.41262 -0.28868,-0.45388 v -0.74271 l -0.041,-0.90777 -0.28872,-1.03154 h -0.82482 l -1.27849,0.2063 -1.03104,0.12379 -0.37116,0.12378 -2.26828,1.27914 -1.44343,0.0825 -1.278491,-0.90777 -1.15475,-0.5364 -1.23724,-0.28883 h -0.82486 l -1.81458,-0.20632 -1.03104,0.0412 0.041,0.90777 -0.78359,1.19661 -0.61862,1.11407 -0.7011,0.82524 z" id="path1989" />
  </g>
</svg>
