<?xml version="1.0" encoding="UTF-8" standalone="no"?>
<svg xmlns:dc="http://purl.org/dc/elements/1.1/" xmlns:cc="http://creativecommons.org/ns#" xmlns:rdf="http://www.w3.org/1999/02/22-rdf-syntax-ns#" xmlns:svg="http://www.w3.org/2000/svg" xmlns="http://www.w3.org/2000/svg" xmlns:sodipodi="http://sodipodi.sourceforge.net/DTD/sodipodi-0.dtd" xmlns:inkscape="http://www.inkscape.org/namespaces/inkscape" sodipodi:docname="region08.svg" inkscape:version="1.0 (4035a4f, 2020-05-01)" id="svg1597" version="1.1" viewBox="0 0 34.572872 27.574326" height="27.574326mm" width="34.572872mm">
  <defs id="defs1591" />
  <sodipodi:namedview fit-margin-bottom="0" fit-margin-right="0" fit-margin-left="0" fit-margin-top="0" inkscape:window-maximized="0" inkscape:window-y="25" inkscape:window-x="0" inkscape:window-height="776" inkscape:window-width="1252" showgrid="false" inkscape:document-rotation="0" inkscape:current-layer="layer1" inkscape:document-units="mm" inkscape:cy="159.2518" inkscape:cx="-15.862012" inkscape:zoom="0.35" inkscape:pageshadow="2" inkscape:pageopacity="0.0" borderopacity="1.0" bordercolor="#666666" pagecolor="#ffffff" id="base" />
  <metadata id="metadata1594">
    <rdf:RDF>
      <cc:Work rdf:about="">
        <dc:format>image/svg+xml</dc:format>
        <dc:type rdf:resource="http://purl.org/dc/dcmitype/StillImage" />
        <dc:title></dc:title>
      </cc:Work>
    </rdf:RDF>
  </metadata>
  <g transform="translate(-110.03016,-106.0313)" id="layer1" inkscape:groupmode="layer" inkscape:label="Lager 1">
    <path style="opacity:0.18;fill:#ff0000;fill-opacity:1;stroke:#ff0000;stroke-width:0.312635px;stroke-linecap:butt;stroke-linejoin:miter;stroke-opacity:1" d="m 119.14481,106.22073 0.84793,0.79536 0.90092,1.21956 0.0528,1.06049 0.74194,0.90144 2.06689,0.37117 2.06695,0.37117 1.58994,0.37114 2.01395,0.63632 1.96093,1.00746 1.69596,0.7954 1.96087,1.21958 2.27894,1.53768 2.33191,1.59076 1.21893,0.84839 1.85504,1.7498 1.16586,0.84841 0.53008,1.11343 -1.58992,2.49215 -1.74904,0.90144 -1.64283,1.06051 -1.53703,1.32558 -2.17292,1.48471 -1.27188,1.06049 -1.96106,1.27261 0.21194,1.16651 -2.38485,-0.31804 -1.43093,-0.95447 -3.23297,-1.59073 -1.96089,-0.74236 -1.00706,-0.47722 -1.90782,-1.37863 -8.26765,-8.05976 -2.18756,-3.35117 -0.14454,-0.83777 0.21194,-2.43912 1.21896,-2.01495 1.4839,-1.06049 1.8549,-1.21959 1.43098,-0.37111 0.90103,-1.43171 z" id="path2041-5" inkscape:export-xdpi="300" inkscape:export-ydpi="300" />
  </g>
</svg>
