<?xml version="1.0" encoding="UTF-8" standalone="no"?>
<svg xmlns:dc="http://purl.org/dc/elements/1.1/" xmlns:cc="http://creativecommons.org/ns#" xmlns:rdf="http://www.w3.org/1999/02/22-rdf-syntax-ns#" xmlns:svg="http://www.w3.org/2000/svg" xmlns="http://www.w3.org/2000/svg" xmlns:sodipodi="http://sodipodi.sourceforge.net/DTD/sodipodi-0.dtd" xmlns:inkscape="http://www.inkscape.org/namespaces/inkscape" sodipodi:docname="region09.svg" inkscape:version="1.0 (4035a4f, 2020-05-01)" id="svg2220" version="1.1" viewBox="0 0 46.195229 30.810598" height="30.810598mm" width="46.195229mm">
  <defs id="defs2214" />
  <sodipodi:namedview inkscape:window-maximized="0" inkscape:window-y="25" inkscape:window-x="0" inkscape:window-height="776" inkscape:window-width="1252" fit-margin-bottom="0" fit-margin-right="0" fit-margin-left="0" fit-margin-top="0" showgrid="false" inkscape:document-rotation="0" inkscape:current-layer="layer1" inkscape:document-units="mm" inkscape:cy="230.58958" inkscape:cx="124.44093" inkscape:zoom="0.35" inkscape:pageshadow="2" inkscape:pageopacity="0.0" borderopacity="1.0" bordercolor="#666666" pagecolor="#ffffff" id="base" />
  <metadata id="metadata2217">
    <rdf:RDF>
      <cc:Work rdf:about="">
        <dc:format>image/svg+xml</dc:format>
        <dc:type rdf:resource="http://purl.org/dc/dcmitype/StillImage" />
        <dc:title></dc:title>
      </cc:Work>
    </rdf:RDF>
  </metadata>
  <g transform="translate(-72.908338,-87.156506)" id="layer1" inkscape:groupmode="layer" inkscape:label="Lager 1">
    <path style="opacity:0.18;fill:#ff0000;stroke:#ff0000;stroke-width:0.30543900000000002px;stroke-linecap:butt;stroke-linejoin:miter;stroke-opacity:1;fill-opacity:1" d="m 115.05992,114.48684 1.39794,-1.76133 1.03557,-1.45049 0.98388,-1.76135 0.41414,-0.82889 -1.5016,-0.56982 -1.19091,-1.34695 -0.62127,-1.39868 -0.51775,-1.76136 -0.20706,-1.70953 -0.25889,-0.62165 h -0.56957 l -2.79612,0.0518 -2.32993,-0.15523 -1.29444,-0.15522 -1.39805,-0.72528 -1.4499,-0.984252 -1.08732,-0.984274 -1.39786,-1.554144 -0.72505,-1.139686 -0.67302,-0.725281 -1.087331,-0.414431 -0.932021,0.155226 -2.019321,0.103661 h -1.708788 l -1.151057,0.02116 -2.892425,0.03676 -1.025131,-0.659357 -1.793965,-0.842507 -1.098406,-0.989035 -5.052588,-3.882939 -1.281399,-0.256508 -1.720874,-0.07325 -1.171604,0.03676 -2.379807,0.329678 -0.915228,-0.1465 -1.537828,-0.879132 0.273378,1.865549 0.569579,1.968601 1.34632,2.486588 1.346188,1.243294 1.139183,2.227595 0.207057,3.367284 -1.397912,1.03605 1.708604,1.9686 0.05156,1.03608 0.724859,0.88066 2.019321,0.41446 1.863936,0.3108 1.708788,0.36265 1.967597,0.62162 3.572725,1.76136 2.278155,1.45051 2.796089,1.91675 2.537096,1.70956 1.812344,1.70955 1.139026,0.82886 0.51788,1.08783 1.50147,-1.60595 1.44988,-1.13971 1.65677,-0.67342 7.40439,0.0518 z" id="path2043-1" inkscape:export-xdpi="300" inkscape:export-ydpi="300" />
  </g>
</svg>
