<?xml version="1.0" encoding="UTF-8" standalone="no"?>
<svg xmlns:dc="http://purl.org/dc/elements/1.1/" xmlns:cc="http://creativecommons.org/ns#" xmlns:rdf="http://www.w3.org/1999/02/22-rdf-syntax-ns#" xmlns:svg="http://www.w3.org/2000/svg" xmlns="http://www.w3.org/2000/svg" xmlns:sodipodi="http://sodipodi.sourceforge.net/DTD/sodipodi-0.dtd" xmlns:inkscape="http://www.inkscape.org/namespaces/inkscape" sodipodi:docname="region38.svg" inkscape:version="1.0 (4035a4f, 2020-05-01)" id="svg6452" version="1.1" viewBox="0 0 25.005329 21.840204" height="21.840204mm" width="25.005329mm">
  <defs id="defs6446" />
  <sodipodi:namedview inkscape:window-maximized="0" inkscape:window-y="25" inkscape:window-x="0" inkscape:window-height="777" inkscape:window-width="1252" showgrid="false" inkscape:document-rotation="0" inkscape:current-layer="layer1" inkscape:document-units="mm" inkscape:cy="45.052327" inkscape:cx="0.111263" inkscape:zoom="0.35" inkscape:pageshadow="2" inkscape:pageopacity="0.0" borderopacity="1.0" bordercolor="#666666" pagecolor="#ffffff" id="base" />
  <metadata id="metadata6449">
    <rdf:RDF>
      <cc:Work rdf:about="">
        <dc:format>image/svg+xml</dc:format>
        <dc:type rdf:resource="http://purl.org/dc/dcmitype/StillImage" />
        <dc:title></dc:title>
      </cc:Work>
    </rdf:RDF>
  </metadata>
  <g transform="translate(-105.80389,-136.24657)" id="layer1" inkscape:groupmode="layer" inkscape:label="Lager 1">
    <path id="path2015" d="m 117.47911,156.35303 0.87095,0.0967 1.25807,0.29048 1.12903,0.4841 0.96773,0.71005 0.35485,-1.00052 0.45159,-0.71003 0.70973,-0.77457 0.67738,-0.71005 0.58066,-0.54868 1.03226,-0.90367 0.87098,-0.48409 0.74194,-0.54868 0.80647,-0.29047 0.93542,-0.32274 1.29037,-0.54866 0.4193,-0.22593 -0.45159,-0.16129 h -0.32256 l -0.38709,0.0967 -0.29034,-0.19365 -0.29031,-0.16128 -0.0321,-0.38731 0.0967,-0.71003 v -0.77458 l -0.0321,-0.54866 -0.35488,-0.35501 -0.16129,-0.32276 -0.0643,-0.32274 -0.0321,-0.48411 0.58067,-0.22592 0.45159,-0.29048 0.129,-0.32274 -0.1936,-0.25818 -0.51612,-0.16145 -0.4516,-0.45184 0.35485,-1.03277 -0.45159,0.0967 -0.70974,-0.22592 -1.48385,-0.61321 -1.06446,-0.0967 -1.51618,-0.61324 -1.87094,-0.93595 -0.96772,-0.67776 -1.25816,-0.54867 -1.16121,-0.22592 -0.87101,-0.29047 -0.61296,-0.48411 -1.06448,-0.58095 -0.77417,-0.54864 -2.19355,-1.35554 -1.22585,-0.32274 -1.06447,0.0321 -1.16132,-0.0646 -0.9032,0.29048 -0.0967,1.3878 -0.22577,1.45232 -0.54845,1.35553 -0.45159,1.06506 -0.51614,0.96824 -0.29031,1.19414 -0.22581,0.67775 v 0.83915 l 0.51612,1.09733 1.74195,1.58145 0.83868,0.90367 0.54844,0.51638 1.0645,0.83915 0.67741,0.64548 1.87103,1.2587 v 0 l 0.58065,0.64548 0.96773,0.83913 0.70961,0.67776 0.77425,0.96823 z" style="opacity:0.18;fill:#fa0000;stroke:#ff0000;stroke-width:0.19028999999999999px;stroke-linecap:butt;stroke-linejoin:miter;stroke-opacity:1;fill-opacity:1" inkscape:export-xdpi="300" inkscape:export-ydpi="300" />
  </g>
</svg>
