<?xml version="1.0" encoding="UTF-8" standalone="no"?>
<svg xmlns:dc="http://purl.org/dc/elements/1.1/" xmlns:cc="http://creativecommons.org/ns#" xmlns:rdf="http://www.w3.org/1999/02/22-rdf-syntax-ns#" xmlns:svg="http://www.w3.org/2000/svg" xmlns="http://www.w3.org/2000/svg" xmlns:sodipodi="http://sodipodi.sourceforge.net/DTD/sodipodi-0.dtd" xmlns:inkscape="http://www.inkscape.org/namespaces/inkscape" sodipodi:docname="region18.svg" inkscape:version="1.0 (4035a4f, 2020-05-01)" id="svg2820" version="1.1" viewBox="0 0 44.71442 20.503214" height="20.503214mm" width="44.71442mm">
  <defs id="defs2814" />
  <sodipodi:namedview inkscape:window-maximized="0" inkscape:window-y="25" inkscape:window-x="0" inkscape:window-height="776" inkscape:window-width="1252" showgrid="false" inkscape:document-rotation="0" inkscape:current-layer="layer1" inkscape:document-units="mm" inkscape:cy="111.83321" inkscape:cx="-115.50028" inkscape:zoom="0.35" inkscape:pageshadow="2" inkscape:pageopacity="0.0" borderopacity="1.0" bordercolor="#666666" pagecolor="#ffffff" id="base" />
  <metadata id="metadata2817">
    <rdf:RDF>
      <cc:Work rdf:about="">
        <dc:format>image/svg+xml</dc:format>
        <dc:type rdf:resource="http://purl.org/dc/dcmitype/StillImage" />
        <dc:title></dc:title>
      </cc:Work>
    </rdf:RDF>
  </metadata>
  <g transform="translate(-136.39278,-118.57746)" id="layer1" inkscape:groupmode="layer" inkscape:label="Lager 1">
    <path id="path2029-0" d="m 136.57557,135.13002 0.84129,0.78908 0.89389,0.55238 h 1.07789 l 1.36714,-0.28933 0.92021,-0.21043 h 2.23472 l 1.94547,-0.079 1.26197,-0.21041 1.57741,-0.0788 h 1.20938 l 2.57653,0.1316 1.36716,0.26303 1.20932,0.34193 0.97276,0.47349 1.34081,0.1052 2.26102,0.34195 1.70888,0.57868 1.44605,0.28934 2.41872,0.49976 2.23469,0.34197 2.78687,-0.18419 2.12947,-0.26303 2.05072,-0.44717 1.0779,-0.47349 2.26102,-1.34148 1.44598,-0.86804 1.31459,-0.92063 0.44691,-0.47347 -0.94645,-0.94696 -1.65634,-1.42038 -0.78875,-0.81544 -0.8676,-1.18368 -0.184,-0.8154 -0.0788,-1.76238 0.0589,-2.10405 -1.22702,-0.63241 -2.56543,-0.89276 -0.89229,-0.037 -2.2883,-0.41069 -1.65627,-0.55238 -1.22358,-0.37615 -1.18978,-0.22318 -1.11543,-0.11146 -1.5244,-0.48359 -1.49319,-1.01501 -1.85314,-1.51457 -1.7487,0.62023 -1.55118,1.39411 -1.81404,0.94693 -1.65635,1.15739 -1.2883,1.07843 -1.26185,1.10479 -2.83949,1.13105 -1.81403,0.21046 -1.52489,0.15779 -0.86756,0.0264 -0.76248,0.0788 -1.02527,0.23675 -0.8939,0.55241 -2.15587,5.60273 -0.0522,0.57866 -0.44691,0.86804 z" style="opacity:0.18;fill:#ff0000;stroke:#ff0000;stroke-width:0.21932900000000000px;stroke-linecap:butt;stroke-linejoin:miter;stroke-opacity:1;fill-opacity:1" inkscape:export-xdpi="300" inkscape:export-ydpi="300" />
  </g>
</svg>
