<?xml version="1.0" encoding="UTF-8" standalone="no"?>
<svg xmlns:dc="http://purl.org/dc/elements/1.1/" xmlns:cc="http://creativecommons.org/ns#" xmlns:rdf="http://www.w3.org/1999/02/22-rdf-syntax-ns#" xmlns:svg="http://www.w3.org/2000/svg" xmlns="http://www.w3.org/2000/svg" id="svg941" version="1.1" viewBox="0 0 34.20155 31.512512" height="31.512512mm" width="34.20155mm">
  <defs id="defs935" />
  <metadata id="metadata938">
    <rdf:RDF>
      <cc:Work rdf:about="">
        <dc:format>image/svg+xml</dc:format>
        <dc:type rdf:resource="http://purl.org/dc/dcmitype/StillImage" />
        <dc:title></dc:title>
      </cc:Work>
    </rdf:RDF>
  </metadata>
  <g transform="translate(-78.527195,-133.6502)" id="layer1">
    <path style="opacity:0.18;fill:#ff0000;fill-opacity:1;stroke:#ff0000;stroke-width:0.32172299999999998px;stroke-linecap:butt;stroke-linejoin:miter;stroke-opacity:1" d="m 92.420421,146.29428 0.936419,-1.51996 0.927116,-1.52784 0.70902,-1.52789 1.363502,-1.96437 2.127004,-1.3096 1.418068,-0.98216 2.18151,-0.70935 2.29057,-0.38199 h 1.79986 l 1.69061,-0.0546 1.52718,-0.32736 1.47246,-0.81849 1.60895,-1.20047 0.0947,31.03162 -28.791619,-0.006 -0.997168,-0.87456 -1.079782,-1.77487 -1.542686,-1.15747 -0.848373,-1.46623 -0.617102,-2.08352 0.15431,-1.38907 0.231187,-1.62051 0.925556,-0.926 1.311248,-0.92603 2.553335,-1.45417 2.29059,-1.36414 1.363502,-0.92765 2.12252,-1.03844 1.58611,-1.03505 z" id="path2047-7" />
  </g>
</svg>
