<?xml version="1.0" encoding="UTF-8" standalone="no"?>
<svg xmlns:dc="http://purl.org/dc/elements/1.1/" xmlns:cc="http://creativecommons.org/ns#" xmlns:rdf="http://www.w3.org/1999/02/22-rdf-syntax-ns#" xmlns:svg="http://www.w3.org/2000/svg" xmlns="http://www.w3.org/2000/svg" xmlns:sodipodi="http://sodipodi.sourceforge.net/DTD/sodipodi-0.dtd" xmlns:inkscape="http://www.inkscape.org/namespaces/inkscape" sodipodi:docname="region36.svg" inkscape:version="1.0 (4035a4f, 2020-05-01)" id="svg5236" version="1.1" viewBox="0 0 20.37463 19.40641" height="19.40641mm" width="20.37463mm">
  <defs id="defs5230" />
  <sodipodi:namedview inkscape:window-maximized="0" inkscape:window-y="25" inkscape:window-x="0" inkscape:window-height="777" inkscape:window-width="1252" showgrid="false" inkscape:document-rotation="0" inkscape:current-layer="layer1" inkscape:document-units="mm" inkscape:cy="89.530462" inkscape:cx="-80.994476" inkscape:zoom="0.35" inkscape:pageshadow="2" inkscape:pageopacity="0.0" borderopacity="1.0" bordercolor="#666666" pagecolor="#ffffff" id="base" />
  <metadata id="metadata5233">
    <rdf:RDF>
      <cc:Work rdf:about="">
        <dc:format>image/svg+xml</dc:format>
        <dc:type rdf:resource="http://purl.org/dc/dcmitype/StillImage" />
        <dc:title></dc:title>
      </cc:Work>
    </rdf:RDF>
  </metadata>
  <g transform="translate(-127.26312,-124.4784)" id="layer1" inkscape:groupmode="layer" inkscape:label="Lager 1">
    <path style="opacity:0.18;fill:#ff0000;fill-opacity:1;stroke:#ff000b;stroke-width:0.23400399999999999px;stroke-linecap:butt;stroke-linejoin:miter;stroke-opacity:1" d="m 131.28035,124.70008 0.25246,1.20677 0.33665,0.56127 0.64516,0.81386 0.61706,0.25255 1.40256,-0.0561 1.45859,0.0841 1.2341,0.0282 1.65501,0.22451 0.95373,0.50517 1.20615,0.50513 0.81335,0.25259 1.4586,0.22452 1.20618,0.1404 1.40254,0.36485 1.51463,0.50514 -0.7573,0.89804 -0.25245,0.50515 -0.16835,0.75774 -0.22438,1.90836 -0.19631,0.30869 -0.42075,0.11224 -0.22435,0.28063 -0.16836,0.39291 -0.33656,0.28061 h -0.36461 l -0.33667,-0.0561 -0.44873,-0.19651 -0.47691,-0.11224 -0.64512,0.22454 -0.36462,0.19651 -0.25246,0.61743 0.47679,0.50515 0.33667,0.39287 0.16815,0.42097 -0.0841,0.58934 -0.2805,0.39289 -0.28043,0.19652 -0.53292,-0.0561 -0.42079,-0.19652 -0.33665,-0.14039 -0.42066,-0.0561 -0.33667,0.30869 -0.22434,0.33677 -0.0557,0.47709 0.0841,0.53323 0.19631,0.5332 -0.0557,0.33678 -0.95371,0.28063 -0.53299,0.0561 -0.30845,0.16835 -0.0841,0.44901 -0.0841,0.61741 -0.0557,0.39289 -0.36463,0.39291 -0.50497,0.36481 -1.17808,-1.34707 -0.72924,-0.95415 -0.44887,-0.70161 -0.22433,-0.28065 -0.0841,-0.33677 0.0557,-0.42095 0.30857,-0.36485 -0.11224,-0.58933 -0.39269,-0.39291 -0.42068,-0.16836 -0.39281,-0.30871 -0.19632,-0.42097 -0.0557,-0.56127 -0.28053,-0.39289 -0.47681,-0.16835 -0.42074,-0.1404 -0.28053,-0.47711 v -0.56128 l -0.39267,-0.64547 -0.58913,-0.19651 -0.39268,-0.19652 -0.39269,-0.7858 -0.25245,-0.25258 -0.42077,-0.11223 -0.5609,0.14039 -0.61716,-0.14039 -0.39269,-0.42095 0.0557,-0.75774 0.1402,-0.3929 -0.0286,-0.44902 -0.33665,-0.36484 -0.22437,-0.30869 -0.0282,-0.44903 0.16835,-0.39289 0.58911,-0.19651 0.30848,-0.50517 0.0282,-0.70161 v -0.58934 l 0.14019,-0.7016 0.33657,-0.56129 0.47693,-0.33675 1.09396,-0.44903 z" id="path2099" inkscape:export-xdpi="300" inkscape:export-ydpi="300" />
  </g>
</svg>
