<?xml version="1.0" encoding="UTF-8" standalone="no"?>
<svg xmlns:dc="http://purl.org/dc/elements/1.1/" xmlns:cc="http://creativecommons.org/ns#" xmlns:rdf="http://www.w3.org/1999/02/22-rdf-syntax-ns#" xmlns:svg="http://www.w3.org/2000/svg" xmlns="http://www.w3.org/2000/svg" xmlns:sodipodi="http://sodipodi.sourceforge.net/DTD/sodipodi-0.dtd" xmlns:inkscape="http://www.inkscape.org/namespaces/inkscape" sodipodi:docname="region24.svg" inkscape:version="1.0 (4035a4f, 2020-05-01)" id="svg1585" version="1.1" viewBox="0 0 27.04269 11.034372" height="11.034372mm" width="27.04269mm">
  <defs id="defs1579" />
  <sodipodi:namedview inkscape:window-maximized="0" inkscape:window-y="25" inkscape:window-x="0" inkscape:window-height="777" inkscape:window-width="1252" showgrid="false" inkscape:document-rotation="0" inkscape:current-layer="layer1" inkscape:document-units="mm" inkscape:cy="94.325585" inkscape:cx="-123.18142" inkscape:zoom="0.35" inkscape:pageshadow="2" inkscape:pageopacity="0.0" borderopacity="1.0" bordercolor="#666666" pagecolor="#ffffff" id="base" />
  <metadata id="metadata1582">
    <rdf:RDF>
      <cc:Work rdf:about="">
        <dc:format>image/svg+xml</dc:format>
        <dc:type rdf:resource="http://purl.org/dc/dcmitype/StillImage" />
        <dc:title></dc:title>
      </cc:Work>
    </rdf:RDF>
  </metadata>
  <g transform="translate(-109.32092,-123.20969)" id="layer1" inkscape:groupmode="layer" inkscape:label="Lager 1">
    <path id="path2059-6" d="m 118.43963,134.07112 1.46976,-0.71156 1.23284,-0.14215 2.03884,0.23731 2.46542,0.18985 2.32336,0.37952 h 1.6121 l 1.4224,-0.14238 1.61209,-0.56923 1.04302,-0.61673 0.71127,-0.759 0.6163,-0.94875 0.85346,-1.42312 0.37938,-1.37569 -0.23707,-1.37571 -0.42674,-1.13852 -0.80609,-0.85385 -1.6121,0.37948 -1.56461,0.18985 -1.13787,-0.42694 -2.51305,-1.37569 -1.80177,-0.23706 -2.13354,0.14214 -2.27589,-0.14214 -2.60775,0.2846 -1.46988,0.33206 -1.80165,0.80646 -1.28021,0.71156 -1.56473,0.52181 -1.51724,0.33204 -1.70683,0.14214 1.32757,0.80646 1.23272,0.80644 1.56473,1.28083 1.56461,1.70773 0.90095,0.85389 1.04302,0.94875 z" style="opacity:0.18;fill:#ff0000;fill-opacity:1;stroke:#ff0002;stroke-width:0.280895;stroke-linecap:butt;stroke-linejoin:miter;stroke-miterlimit:4;stroke-dasharray:none;stroke-opacity:1" inkscape:export-xdpi="300" inkscape:export-ydpi="300" />
  </g>
</svg>
