<?xml version="1.0" encoding="UTF-8" standalone="no"?>
<svg xmlns:dc="http://purl.org/dc/elements/1.1/" xmlns:cc="http://creativecommons.org/ns#" xmlns:rdf="http://www.w3.org/1999/02/22-rdf-syntax-ns#" xmlns:svg="http://www.w3.org/2000/svg" xmlns="http://www.w3.org/2000/svg" xmlns:sodipodi="http://sodipodi.sourceforge.net/DTD/sodipodi-0.dtd" xmlns:inkscape="http://www.inkscape.org/namespaces/inkscape" sodipodi:docname="region23.svg" inkscape:version="1.0 (4035a4f, 2020-05-01)" id="svg944" version="1.1" viewBox="0 0 23.489147 16.16787" height="16.16787mm" width="23.489147mm">
  <defs id="defs938" />
  <sodipodi:namedview inkscape:window-maximized="0" inkscape:window-y="25" inkscape:window-x="0" inkscape:window-height="777" inkscape:window-width="1252" showgrid="false" inkscape:document-rotation="0" inkscape:current-layer="layer1" inkscape:document-units="mm" inkscape:cy="34.820534" inkscape:cx="-49.896785" inkscape:zoom="0.35" inkscape:pageshadow="2" inkscape:pageopacity="0.0" borderopacity="1.0" bordercolor="#666666" pagecolor="#ffffff" id="base" />
  <metadata id="metadata941">
    <rdf:RDF>
      <cc:Work rdf:about="">
        <dc:format>image/svg+xml</dc:format>
        <dc:type rdf:resource="http://purl.org/dc/dcmitype/StillImage" />
        <dc:title></dc:title>
      </cc:Work>
    </rdf:RDF>
  </metadata>
  <g transform="translate(-119.03519,-138.95373)" id="layer1" inkscape:groupmode="layer" inkscape:label="Lager 1">
    <path inkscape:export-ydpi="300" inkscape:export-xdpi="300" style="opacity:0.18;fill:#ff0000;fill-opacity:1;stroke:#ffffff;stroke-width:0.23811800000000000px;stroke-linecap:butt;stroke-linejoin:miter;stroke-opacity:1" d="m 119.15425,140.73176 v 14.22314 0 l 0.8453,-0.28993 1.25128,-0.80774 0.88809,-0.96926 0.7669,-0.32309 1.37248,-0.80769 1.53394,-0.56542 1.21095,-0.32311 h 1.37246 l 1.8568,0.0402 1.45321,-0.12101 1.29171,-0.28271 1.33203,-0.44424 1.0899,-0.60579 1.53394,-0.68656 1.25128,-0.28272 2.22013,-0.24229 1.93755,0.12101 -0.40363,-1.37312 -0.767,-1.4135 -0.84767,-1.05005 -1.13023,-1.53468 -0.76692,-0.96926 -1.41288,-1.21158 -1.37244,-0.76733 -1.41278,-0.36349 -1.04948,-0.081 -1.93755,-0.12101 -3.02747,-0.40386 -1.41276,0.52499 -1.61469,0.48465 -1.93755,0.32309 -1.37248,0.2827 -1.69532,-0.081 z" id="path2055" sodipodi:nodetypes="ccccccccccccccccccccccccccccccccccccc" />
  </g>
</svg>
