<?xml version="1.0" encoding="UTF-8" standalone="no"?>
<svg xmlns:dc="http://purl.org/dc/elements/1.1/" xmlns:cc="http://creativecommons.org/ns#" xmlns:rdf="http://www.w3.org/1999/02/22-rdf-syntax-ns#" xmlns:svg="http://www.w3.org/2000/svg" xmlns="http://www.w3.org/2000/svg" xmlns:sodipodi="http://sodipodi.sourceforge.net/DTD/sodipodi-0.dtd" xmlns:inkscape="http://www.inkscape.org/namespaces/inkscape" sodipodi:docname="region45.svg" inkscape:version="1.0 (4035a4f, 2020-05-01)" id="svg3338" version="1.1" viewBox="0 0 11.752557 7.9706211" height="7.9706211mm" width="11.752557mm">
  <defs id="defs3332" />
  <sodipodi:namedview inkscape:window-maximized="0" inkscape:window-y="25" inkscape:window-x="0" inkscape:window-height="777" inkscape:window-width="1252" showgrid="false" inkscape:document-rotation="0" inkscape:current-layer="layer1" inkscape:document-units="mm" inkscape:cy="160.77686" inkscape:cx="50.780976" inkscape:zoom="0.35" inkscape:pageshadow="2" inkscape:pageopacity="0.0" borderopacity="1.0" bordercolor="#666666" pagecolor="#ffffff" id="base" />
  <metadata id="metadata3335">
    <rdf:RDF>
      <cc:Work rdf:about="">
        <dc:format>image/svg+xml</dc:format>
        <dc:type rdf:resource="http://purl.org/dc/dcmitype/StillImage" />
        <dc:title></dc:title>
      </cc:Work>
    </rdf:RDF>
  </metadata>
  <g transform="translate(-92.397533,-105.62779)" id="layer1" inkscape:groupmode="layer" inkscape:label="Lager 1">
    <path inkscape:export-ydpi="300" inkscape:export-xdpi="300" style="opacity:0.18;fill:#ff0000;stroke:#ff0000;stroke-width:0.11550400000000000px;stroke-linecap:butt;stroke-linejoin:miter;stroke-opacity:1;fill-opacity:1" d="m 92.485265,110.01239 0.81655,0.52518 1.04981,0.81694 0.99152,0.52518 0.4666,0.32095 0.64158,0.61271 0.68744,0.43556 0.47076,0.27705 0.38766,-0.38786 0.52613,-0.47098 0.41537,-0.44327 0.58152,-0.60952 0.33229,-0.0277 0.858405,0.11082 0.49843,0.0831 0.44304,-0.0554 -0.22154,-0.49868 -0.0275,-0.49869 0.0275,-0.44327 0.36,-0.6095 0.30462,-0.44327 0.63688,-1.19131 0.44306,-0.44328 0.36,-0.52638 0.4984,-0.47098 -0.55384,-0.13852 -0.55378,-0.30475 -0.71996,-0.22165 -1.24609,-0.24933 h -1.052255 l -1.94014,0.15457 -0.72906,0.0584 -1.04981,0.29178 -0.87487,0.32095 -0.67074,0.37929 -0.67069,0.55435 -0.72907,0.81695 -0.58325,0.84613 -0.20414,0.46682 z" id="path2001" />
  </g>
</svg>
