<?xml version="1.0" encoding="UTF-8" standalone="no"?>
<svg xmlns:dc="http://purl.org/dc/elements/1.1/" xmlns:cc="http://creativecommons.org/ns#" xmlns:rdf="http://www.w3.org/1999/02/22-rdf-syntax-ns#" xmlns:svg="http://www.w3.org/2000/svg" xmlns="http://www.w3.org/2000/svg" xmlns:sodipodi="http://sodipodi.sourceforge.net/DTD/sodipodi-0.dtd" xmlns:inkscape="http://www.inkscape.org/namespaces/inkscape" sodipodi:docname="region50.svg" inkscape:version="1.0 (4035a4f, 2020-05-01)" id="svg6386" version="1.1" viewBox="0 0 16.02412 8.9517508" height="8.9517508mm" width="16.02412mm">
  <defs id="defs6380" />
  <sodipodi:namedview inkscape:window-maximized="0" inkscape:window-y="25" inkscape:window-x="0" inkscape:window-height="777" inkscape:window-width="1252" showgrid="false" inkscape:document-rotation="0" inkscape:current-layer="layer1" inkscape:document-units="mm" inkscape:cy="-54.511891" inkscape:cx="27.424664" inkscape:zoom="0.35" inkscape:pageshadow="2" inkscape:pageopacity="0.0" borderopacity="1.0" bordercolor="#666666" pagecolor="#ffffff" id="base" />
  <metadata id="metadata6383">
    <rdf:RDF>
      <cc:Work rdf:about="">
        <dc:format>image/svg+xml</dc:format>
        <dc:type rdf:resource="http://purl.org/dc/dcmitype/StillImage" />
        <dc:title></dc:title>
      </cc:Work>
    </rdf:RDF>
  </metadata>
  <g transform="translate(-98.577224,-162.5896)" id="layer1" inkscape:groupmode="layer" inkscape:label="Lager 1">
    <path inkscape:export-ydpi="300" inkscape:export-xdpi="300" style="opacity:0.18;fill:#ff0000;stroke:#ff0000;stroke-width:0.11550400000000000px;stroke-linecap:butt;stroke-linejoin:miter;stroke-opacity:1;fill-opacity:1" d="m 102.36625,169.62323 v 0 0 l 0.22635,-0.28044 0.16617,-0.0554 h 0.19383 l 0.30459,0.13852 0.22155,0.0554 0.13845,-0.0831 0.13847,-0.13853 h 0.19383 l 0.16613,0.0554 0.2492,0.19394 0.2492,0.19393 0.33229,0.13851 0.19383,0.13853 0.3323,0.0831 0.16617,0.0277 h 0.22149 0.19385 l 0.11079,-0.0831 0.11075,-0.11083 0.16612,-0.13851 0.22154,-0.0277 0.24922,0.11082 0.41537,0.16622 0.22155,0.16623 0.22149,0.0554 0.16612,0.11081 0.1108,0.11082 0.19383,0.0554 0.36,-0.0277 0.19384,0.13853 0.0554,0.24935 0.22149,0.19392 h 0.19384 l 0.19387,0.0554 0.33225,0.11082 0.30463,0.22165 0.16613,0.0277 0.0831,-0.27705 0.0831,-0.52639 0.0275,-0.55409 0.11076,-0.5541 0.13846,-0.55409 0.22149,-0.24934 0.33229,-0.16623 0.55384,-0.11082 h 0.44305 l 0.66457,-0.16622 0.41539,-0.38787 0.69226,-0.41557 0.47075,-0.36016 -1.15827,-0.71261 -0.64157,-0.61271 -0.46655,-0.32095 -0.99153,-0.52518 -1.04984,-0.81694 -0.8165,-0.52519 -0.5541,-0.14587 -1.22483,-0.0875 -1.72054,0.0584 -0.75823,-0.14589 -0.9332,-0.37929 -1.22477,-0.29178 -2.59543,0.46684 -0.845718,0.0291 -0.86407,-0.0407 0.28868,1.03156 0.041,1.65049 0.28868,0.45387 0.907298,0.41263 1.52596,0.99028 0.41242,0.57767 0.20618,0.70145 z" id="path2003" />
  </g>
</svg>
