<?xml version="1.0" encoding="UTF-8" standalone="no"?>
<svg xmlns:dc="http://purl.org/dc/elements/1.1/" xmlns:cc="http://creativecommons.org/ns#" xmlns:rdf="http://www.w3.org/1999/02/22-rdf-syntax-ns#" xmlns:svg="http://www.w3.org/2000/svg" xmlns="http://www.w3.org/2000/svg" xmlns:sodipodi="http://sodipodi.sourceforge.net/DTD/sodipodi-0.dtd" xmlns:inkscape="http://www.inkscape.org/namespaces/inkscape" sodipodi:docname="region07.svg" inkscape:version="1.0 (4035a4f, 2020-05-01)" id="svg956" version="1.1" viewBox="0 0 29.763414 28.96953" height="28.96953mm" width="29.763414mm">
  <defs id="defs950" />
  <sodipodi:namedview fit-margin-bottom="0" fit-margin-right="0" fit-margin-left="0" fit-margin-top="0" inkscape:window-maximized="0" inkscape:window-y="25" inkscape:window-x="0" inkscape:window-height="776" inkscape:window-width="1252" showgrid="false" inkscape:document-rotation="0" inkscape:current-layer="layer1" inkscape:document-units="mm" inkscape:cy="178.44105" inkscape:cx="-38.039969" inkscape:zoom="0.35" inkscape:pageshadow="2" inkscape:pageopacity="0.0" borderopacity="1.0" bordercolor="#666666" pagecolor="#ffffff" id="base" />
  <metadata id="metadata953">
    <rdf:RDF>
      <cc:Work rdf:about="">
        <dc:format>image/svg+xml</dc:format>
        <dc:type rdf:resource="http://purl.org/dc/dcmitype/StillImage" />
        <dc:title></dc:title>
      </cc:Work>
    </rdf:RDF>
  </metadata>
  <g transform="translate(-115.89808,-100.95414)" id="layer1" inkscape:groupmode="layer" inkscape:label="Lager 1">
    <path sodipodi:nodetypes="cccccccccccccccccccccccccccccccccccccccccc" id="path2037-9" d="m 141.02647,129.79278 0.15525,-0.79915 0.53253,-1.24317 1.24262,-1.24321 1.19811,-0.62156 0.71,-0.57718 0.17746,-0.7104 v -1.02122 l 0.48816,-1.86474 v -1.10995 l -0.0884,-1.95359 -0.48819,-0.8436 0.13304,-1.28754 v -1.28758 l -1.99699,-0.2664 -1.1982,-0.7992 -1.46436,-0.71035 -1.24253,-0.62161 -1.64196,-0.6216 -0.84324,-0.39959 -1.59756,-1.15437 -1.59749,-1.68715 -1.1982,-1.15439 -1.90822,-1.90917 -2.21885,-1.99794 -1.02067,-1.55393 -0.81092,-1.2521 -2.47901,0.5651 -2.35345,1.1616 -2.57302,1.72672 -0.87861,0.25112 -0.53349,0.56513 -0.0897,4.70783 1.06498,3.28555 v 3.10791 l -0.44371,2.48635 -0.0884,1.06557 -0.71002,1.95359 -0.53251,1.06557 -0.35508,3.50757 -0.33275,3.24108 z" style="opacity:0.18;fill:#ff0000;fill-opacity:1;stroke:#ff0000;stroke-width:0.261778px;stroke-linecap:butt;stroke-linejoin:miter;stroke-opacity:1" inkscape:export-xdpi="300" inkscape:export-ydpi="300" />
  </g>
</svg>
