<?xml version="1.0" encoding="UTF-8" standalone="no"?>
<svg xmlns:dc="http://purl.org/dc/elements/1.1/" xmlns:cc="http://creativecommons.org/ns#" xmlns:rdf="http://www.w3.org/1999/02/22-rdf-syntax-ns#" xmlns:svg="http://www.w3.org/2000/svg" xmlns="http://www.w3.org/2000/svg" xmlns:sodipodi="http://sodipodi.sourceforge.net/DTD/sodipodi-0.dtd" xmlns:inkscape="http://www.inkscape.org/namespaces/inkscape" sodipodi:docname="region19.svg" inkscape:version="1.0 (4035a4f, 2020-05-01)" id="svg3458" version="1.1" viewBox="0 0 22.919514 25.359747" height="25.359747mm" width="22.919514mm">
  <defs id="defs3452" />
  <sodipodi:namedview inkscape:window-maximized="0" inkscape:window-y="25" inkscape:window-x="0" inkscape:window-height="776" inkscape:window-width="1252" showgrid="false" inkscape:document-rotation="0" inkscape:current-layer="layer1" inkscape:document-units="mm" inkscape:cy="-13.504627" inkscape:cx="50.209998" inkscape:zoom="0.35" inkscape:pageshadow="2" inkscape:pageopacity="0.0" borderopacity="1.0" bordercolor="#666666" pagecolor="#ffffff" id="base" />
  <metadata id="metadata3455">
    <rdf:RDF>
      <cc:Work rdf:about="">
        <dc:format>image/svg+xml</dc:format>
        <dc:type rdf:resource="http://purl.org/dc/dcmitype/StillImage" />
        <dc:title></dc:title>
      </cc:Work>
    </rdf:RDF>
  </metadata>
  <g transform="translate(-92.548605,-151.73977)" id="layer1" inkscape:groupmode="layer" inkscape:label="Lager 1">
    <path inkscape:export-ydpi="300" inkscape:export-xdpi="300" style="opacity:0.18;fill:#ff0000;stroke:#ff0000;stroke-width:0.26636799999999999px;stroke-linecap:butt;stroke-linejoin:miter;stroke-opacity:1;fill-opacity:1" d="m 98.174345,176.94992 0.893995,-0.25552 0.638638,-0.54307 1.979632,-1.21393 2.39467,-1.18196 1.02171,-0.19164 1.50069,-0.38335 -0.12315,-0.71379 0.18057,-2.07815 0.18057,-0.90357 2.12222,-1.71673 1.58048,-1.0391 1.21921,-0.31619 0.76759,-1.21983 1.58037,-0.81319 1.21921,-0.90357 -0.18057,-2.93651 -0.99337,-1.94264 -1.1741,-1.08426 -1.17398,-2.16852 -0.49672,-1.71676 -0.23841,-1.62693 -0.98979,-0.12776 h -1.50078 l -3.76755,0.41522 -1.78799,-0.032 -1.72423,0.0959 -1.724134,0.44725 -1.316918,1.18978 -0.812658,2.6203 -0.632181,3.52384 -0.677357,1.5812 -1.851364,2.48475 -0.857905,1.31018 -0.677381,0.45168 -0.07149,2.55531 0.0957,2.14035 0.223464,0.9903 1.053765,1.43755 0.957806,0.9903 2.011595,1.72503 z" id="path2031-0" />
  </g>
</svg>
