<?xml version="1.0" encoding="UTF-8" standalone="no"?>
<svg xmlns:dc="http://purl.org/dc/elements/1.1/" xmlns:cc="http://creativecommons.org/ns#" xmlns:rdf="http://www.w3.org/1999/02/22-rdf-syntax-ns#" xmlns:svg="http://www.w3.org/2000/svg" xmlns="http://www.w3.org/2000/svg" xmlns:sodipodi="http://sodipodi.sourceforge.net/DTD/sodipodi-0.dtd" xmlns:inkscape="http://www.inkscape.org/namespaces/inkscape" sodipodi:docname="region46.svg" inkscape:version="1.0 (4035a4f, 2020-05-01)" id="svg3946" version="1.1" viewBox="0 0 12.63742 10.288457" height="10.288457mm" width="12.63742mm">
  <defs id="defs3940" />
  <sodipodi:namedview inkscape:window-maximized="0" inkscape:window-y="25" inkscape:window-x="0" inkscape:window-height="777" inkscape:window-width="1252" showgrid="false" inkscape:document-rotation="0" inkscape:current-layer="layer1" inkscape:document-units="mm" inkscape:cy="48.014199" inkscape:cx="38.167444" inkscape:zoom="0.35" inkscape:pageshadow="2" inkscape:pageopacity="0.0" borderopacity="1.0" bordercolor="#666666" pagecolor="#ffffff" id="base" />
  <metadata id="metadata3943">
    <rdf:RDF>
      <cc:Work rdf:about="">
        <dc:format>image/svg+xml</dc:format>
        <dc:type rdf:resource="http://purl.org/dc/dcmitype/StillImage" />
        <dc:title></dc:title>
      </cc:Work>
    </rdf:RDF>
  </metadata>
  <g transform="translate(-95.734864,-135.46291)" id="layer1" inkscape:groupmode="layer" inkscape:label="Lager 1">
    <path inkscape:export-ydpi="300" inkscape:export-xdpi="300" style="opacity:0.18;fill:#ff0000;stroke:#ff0000;stroke-width:0.11550400000000000px;stroke-linecap:butt;stroke-linejoin:miter;stroke-opacity:1;fill-opacity:1" d="m 105.88923,135.53923 0.46661,0.61271 0.52492,0.6127 0.67074,0.72943 0.64152,0.58352 0.11667,0.55435 -0.29165,0.32096 -0.61235,0.35011 -0.75822,0.46683 -0.49577,0.61272 -0.5541,0.75859 -0.67069,0.72941 -0.40826,0.496 -0.37912,0.6419 v 0.49601 l -0.029,0.64188 -0.52491,0.32094 -0.72907,0.40848 -1.07896,0.55435 -0.69991,0.20424 -0.72907,0.0583 -0.816554,-0.35012 -0.99148,-0.35012 -0.52493,-0.0291 -0.69989,-0.52517 -0.46659,-0.40848 -1.04982,-0.3793 0.0875,-0.55435 0.37913,-0.46683 0.67069,-0.43765 0.52493,-0.26259 0.58324,-0.43766 0.84572,-0.35011 0.64152,-0.3793 0.933214,-1.2546 1.04984,-1.77977 0.46656,-0.55437 1.1665,-0.58353 1.77887,-0.46682 z" id="path1997" sodipodi:nodetypes="cccccccccccccccccccccccccccccccccccccccc" />
  </g>
</svg>
