<?xml version="1.0" encoding="UTF-8" standalone="no"?>
<svg xmlns:dc="http://purl.org/dc/elements/1.1/" xmlns:cc="http://creativecommons.org/ns#" xmlns:rdf="http://www.w3.org/1999/02/22-rdf-syntax-ns#" xmlns:svg="http://www.w3.org/2000/svg" xmlns="http://www.w3.org/2000/svg" xmlns:sodipodi="http://sodipodi.sourceforge.net/DTD/sodipodi-0.dtd" xmlns:inkscape="http://www.inkscape.org/namespaces/inkscape" sodipodi:docname="region57.svg" inkscape:version="1.0 (4035a4f, 2020-05-01)" id="svg10650" version="1.1" viewBox="0 0 7.838696 8.6615582" height="8.6615582mm" width="7.838696mm">
  <defs id="defs10644" />
  <sodipodi:namedview inkscape:window-maximized="0" inkscape:window-y="25" inkscape:window-x="0" inkscape:window-height="777" inkscape:window-width="1252" showgrid="false" inkscape:document-rotation="0" inkscape:current-layer="layer1" inkscape:document-units="mm" inkscape:cy="90.654004" inkscape:cx="14.813274" inkscape:zoom="0.35" inkscape:pageshadow="2" inkscape:pageopacity="0.0" borderopacity="1.0" bordercolor="#666666" pagecolor="#ffffff" id="base" />
  <metadata id="metadata10647">
    <rdf:RDF>
      <cc:Work rdf:about="">
        <dc:format>image/svg+xml</dc:format>
        <dc:type rdf:resource="http://purl.org/dc/dcmitype/StillImage" />
        <dc:title></dc:title>
      </cc:Work>
    </rdf:RDF>
  </metadata>
  <g transform="translate(-101.91399,-124.18113)" id="layer1" inkscape:groupmode="layer" inkscape:label="Lager 1">
    <path inkscape:export-ydpi="300" inkscape:export-xdpi="300" style="opacity:0.18;fill:#ae0000;stroke:#ff0002;stroke-width:0.11550400000000000px;stroke-linecap:butt;stroke-linejoin:miter;stroke-opacity:1;fill-opacity:1" d="m 101.97174,124.98155 v 7.79633 l 0.50912,-0.0588 0.82236,0.0392 0.66574,-0.13713 0.93985,-0.15672 0.76363,-0.25467 0.7049,-0.23507 0.72447,0.0979 0.68529,0.0784 0.99863,0.0784 -0.039,-0.52892 -0.37206,-0.86197 -0.0587,-0.50935 0.039,-0.52892 0.37206,-0.48976 0.35245,-0.56812 0.0587,-0.62689 -0.1175,-0.74442 -0.23496,-0.5877 -0.0979,-0.54852 0.43074,-0.47018 0.52853,-0.45294 -0.61862,-0.28884 -1.2785,-0.45388 -1.03105,-0.3301 h -0.90729 l -1.11353,0.24758 -0.94855,0.12378 -1.11354,0.37136 z" id="path2053" sodipodi:nodetypes="ccccccccccccccccccccccccccccccc" />
  </g>
</svg>
