<?xml version="1.0" encoding="UTF-8" standalone="no"?>
<svg xmlns:dc="http://purl.org/dc/elements/1.1/" xmlns:cc="http://creativecommons.org/ns#" xmlns:rdf="http://www.w3.org/1999/02/22-rdf-syntax-ns#" xmlns:svg="http://www.w3.org/2000/svg" xmlns="http://www.w3.org/2000/svg" xmlns:sodipodi="http://sodipodi.sourceforge.net/DTD/sodipodi-0.dtd" xmlns:inkscape="http://www.inkscape.org/namespaces/inkscape" sodipodi:docname="region53.svg" inkscape:version="1.0 (4035a4f, 2020-05-01)" id="svg8210" version="1.1" viewBox="0 0 10.876976 8.9365273" height="8.9365273mm" width="10.876976mm">
  <defs id="defs8204" />
  <sodipodi:namedview inkscape:window-maximized="0" inkscape:window-y="25" inkscape:window-x="0" inkscape:window-height="777" inkscape:window-width="1252" showgrid="false" inkscape:document-rotation="0" inkscape:current-layer="layer1" inkscape:document-units="mm" inkscape:cy="34.030779" inkscape:cx="23.412058" inkscape:zoom="0.35" inkscape:pageshadow="2" inkscape:pageopacity="0.0" borderopacity="1.0" bordercolor="#666666" pagecolor="#ffffff" id="base" />
  <metadata id="metadata8207">
    <rdf:RDF>
      <cc:Work rdf:about="">
        <dc:format>image/svg+xml</dc:format>
        <dc:type rdf:resource="http://purl.org/dc/dcmitype/StillImage" />
        <dc:title></dc:title>
      </cc:Work>
    </rdf:RDF>
  </metadata>
  <g transform="translate(-99.638893,-139.16269)" id="layer1" inkscape:groupmode="layer" inkscape:label="Lager 1">
    <path inkscape:export-ydpi="300" inkscape:export-xdpi="300" style="opacity:0.18;fill:#ff0000;stroke:#ff0000;stroke-width:0.11550400000000000px;stroke-linecap:butt;stroke-linejoin:miter;stroke-opacity:1;fill-opacity:1" d="m 99.806442,148.00491 0.744068,-0.15671 0.62658,-0.0979 0.92024,0.0392 0.82241,0.0587 0.7049,0.0196 0.64613,-0.19591 0.92024,-0.15671 0.9203,-0.17632 0.54829,-0.1959 0.9398,-0.25468 0.41123,-0.21549 0.48947,-0.37221 0.54828,-0.50934 -0.19584,-0.37221 -0.0979,-0.54854 -0.039,-0.5877 v -0.76401 l 0.0979,-0.58771 0.11749,-0.62688 0.23496,-0.58769 0.15662,-0.37223 0.35245,-0.27426 0.43078,-0.25466 0.33285,-0.098 -0.19578,-0.48974 -0.15667,-0.35263 -0.17618,-0.33303 -0.39162,-0.0196 -0.33288,0.11755 -0.27413,0.0196 -0.27412,-0.43098 -0.56779,0.13713 -1.25319,0.66606 -0.54824,0.23508 -0.64613,0.15671 -0.54823,0.41141 -0.46996,0.50934 -0.39162,0.45057 -0.56779,0.43099 -0.56784,0.37221 -0.64618,0.52894 -0.72447,0.52893 -0.50907,0.29385 -0.41117,0.39181 -0.52868,0.4114 0.33284,0.35261 0.17623,0.47016 0.0979,0.56812 -0.15667,0.56812 -0.60701,0.9795 z" id="path2067" />
  </g>
</svg>
