<?xml version="1.0" encoding="UTF-8" standalone="no"?>
<svg xmlns:dc="http://purl.org/dc/elements/1.1/" xmlns:cc="http://creativecommons.org/ns#" xmlns:rdf="http://www.w3.org/1999/02/22-rdf-syntax-ns#" xmlns:svg="http://www.w3.org/2000/svg" xmlns="http://www.w3.org/2000/svg" xmlns:sodipodi="http://sodipodi.sourceforge.net/DTD/sodipodi-0.dtd" xmlns:inkscape="http://www.inkscape.org/namespaces/inkscape" sodipodi:docname="region27.svg" inkscape:version="1.0 (4035a4f, 2020-05-01)" id="svg3454" version="1.1" viewBox="0 0 39.240479 31.684601" height="31.684601mm" width="39.240479mm">
  <defs id="defs3448" />
  <sodipodi:namedview inkscape:window-maximized="0" inkscape:window-y="25" inkscape:window-x="0" inkscape:window-height="777" inkscape:window-width="1252" showgrid="false" inkscape:document-rotation="0" inkscape:current-layer="layer1" inkscape:document-units="mm" inkscape:cy="31.589256" inkscape:cx="41.298038" inkscape:zoom="0.35" inkscape:pageshadow="2" inkscape:pageopacity="0.0" borderopacity="1.0" bordercolor="#666666" pagecolor="#ffffff" id="base" />
  <metadata id="metadata3451">
    <rdf:RDF>
      <cc:Work rdf:about="">
        <dc:format>image/svg+xml</dc:format>
        <dc:type rdf:resource="http://purl.org/dc/dcmitype/StillImage" />
        <dc:title></dc:title>
      </cc:Work>
    </rdf:RDF>
  </metadata>
  <g transform="translate(-94.906561,-139.80868)" id="layer1" inkscape:groupmode="layer" inkscape:label="Lager 1">
    <path id="path2021-7" d="m 99.293487,139.93109 v 0 l -0.42792,0.75369 0.02897,0.46189 -0.08648,0.80832 -0.288546,0.83715 -0.403954,0.75054 -0.173177,0.60624 -0.57707,1.01035 -0.865552,0.92378 -1.18296,0.75056 -0.259641,1.87639 0.08649,0.72172 -0.115452,1.50112 0.259703,0.92376 0.605954,1.09697 0.923277,0.86603 2.106342,1.76093 2.539029,1.7032 2.48142,1.64545 2.19285,1.67432 2.42363,1.90528 2.25055,1.96301 1.09641,1.35678 2.25062,-0.25981 1.15405,-0.11545 h 1.35612 l 0.8945,0.11545 1.21182,0.69284 0.72134,0.11545 1.87544,-0.25981 0.92328,-0.029 1.35612,0.0577 1.00988,0.20214 2.25053,1.81865 1.73113,1.24132 0.86566,0.77944 1.41386,0.66395 0.80789,0.51961 1.09641,-0.0577 1.18294,0.029 -0.20194,-1.50111 -0.72136,-2.33829 -0.31743,-2.19395 -0.23082,-1.1547 -0.029,-2.33829 -0.31743,-1.01039 -0.77901,-1.55884 -0.46172,-0.8949 -0.0333,-1.80491 -4.08036,-2.65364 -2.65238,-0.89816 -2.20347,-1.06147 -3.30514,-1.02062 -2.40746,-1.55134 -1.59139,-2.04128 -2.32587,-4.81734 -0.81599,-0.89817 -1.71377,-0.69402 -1.83624,-0.57155 -1.22414,-0.28579 -3.3363,-0.002 z" style="opacity:0.18;fill:#ff0000;fill-opacity:1;stroke:#ff0000;stroke-width:0.24070600000000000px;stroke-linecap:butt;stroke-linejoin:miter;stroke-opacity:1" inkscape:export-xdpi="300" inkscape:export-ydpi="300" />
  </g>
</svg>
