<?xml version="1.0" encoding="UTF-8" standalone="no"?>
<svg xmlns:dc="http://purl.org/dc/elements/1.1/" xmlns:cc="http://creativecommons.org/ns#" xmlns:rdf="http://www.w3.org/1999/02/22-rdf-syntax-ns#" xmlns:svg="http://www.w3.org/2000/svg" xmlns="http://www.w3.org/2000/svg" xmlns:sodipodi="http://sodipodi.sourceforge.net/DTD/sodipodi-0.dtd" xmlns:inkscape="http://www.inkscape.org/namespaces/inkscape" sodipodi:docname="region49.svg" inkscape:version="1.0 (4035a4f, 2020-05-01)" id="svg5770" version="1.1" viewBox="0 0 11.984649 6.4664998" height="6.4664998mm" width="11.984649mm">
  <defs id="defs5764" />
  <sodipodi:namedview inkscape:window-maximized="0" inkscape:window-y="25" inkscape:window-x="0" inkscape:window-height="777" inkscape:window-width="1252" showgrid="false" inkscape:document-rotation="0" inkscape:current-layer="layer1" inkscape:document-units="mm" inkscape:cy="-130.63699" inkscape:cx="111.21958" inkscape:zoom="0.35" inkscape:pageshadow="2" inkscape:pageopacity="0.0" borderopacity="1.0" bordercolor="#666666" pagecolor="#ffffff" id="base" />
  <metadata id="metadata5767">
    <rdf:RDF>
      <cc:Work rdf:about="">
        <dc:format>image/svg+xml</dc:format>
        <dc:type rdf:resource="http://purl.org/dc/dcmitype/StillImage" />
        <dc:title></dc:title>
      </cc:Work>
    </rdf:RDF>
  </metadata>
  <g transform="translate(-76.406485,-182.73104)" id="layer1" inkscape:groupmode="layer" inkscape:label="Lager 1">
    <path inkscape:export-ydpi="300" inkscape:export-xdpi="300" style="opacity:0.18;fill:#ff0000;fill-opacity:1;stroke:#ff0000;stroke-width:0.11550400000000000px;stroke-linecap:butt;stroke-linejoin:miter;stroke-opacity:1" d="m 77.048166,188.12932 v 0 l 1.22482,0.29177 0.93321,0.3793 0.75817,0.14589 h 0.69991 l 1.0207,-0.0584 1.22476,0.0875 0.5541,0.14587 -0.029,-0.43764 0.20414,-0.46683 0.58326,-0.84612 0.72906,-0.81695 0.67069,-0.55436 0.67073,-0.37929 0.87489,-0.32094 1.0498,-0.29177 v 0 l -0.81651,-0.35012 -0.99152,-0.35013 -0.52493,-0.0291 -0.69984,-0.52518 -0.46661,-0.40847 -1.04986,-0.3793 -0.78738,-0.17505 -0.61237,0.11671 -0.58325,0.17505 -0.90405,0.11671 -1.04979,0.29177 -1.92472,0.78776 -0.75824,0.40848 -0.49572,0.72941 -0.0875,0.49601 0.11665,0.67107 0.37912,0.70024 z" id="path1999" />
  </g>
</svg>
