<?xml version="1.0" encoding="UTF-8" standalone="no"?>
<svg xmlns:dc="http://purl.org/dc/elements/1.1/" xmlns:cc="http://creativecommons.org/ns#" xmlns:rdf="http://www.w3.org/1999/02/22-rdf-syntax-ns#" xmlns:svg="http://www.w3.org/2000/svg" xmlns="http://www.w3.org/2000/svg" xmlns:sodipodi="http://sodipodi.sourceforge.net/DTD/sodipodi-0.dtd" xmlns:inkscape="http://www.inkscape.org/namespaces/inkscape" sodipodi:docname="region33.svg" inkscape:version="1.0 (4035a4f, 2020-05-01)" id="svg3412" version="1.1" viewBox="0 0 16.10869 21.735037" height="21.735037mm" width="16.10869mm">
  <defs id="defs3406" />
  <sodipodi:namedview inkscape:window-maximized="0" inkscape:window-y="25" inkscape:window-x="0" inkscape:window-height="777" inkscape:window-width="1252" showgrid="false" inkscape:document-rotation="0" inkscape:current-layer="layer1" inkscape:document-units="mm" inkscape:cy="4.6558479" inkscape:cx="-138.12976" inkscape:zoom="0.35" inkscape:pageshadow="2" inkscape:pageopacity="0.0" borderopacity="1.0" bordercolor="#666666" pagecolor="#ffffff" id="base" />
  <metadata id="metadata3409">
    <rdf:RDF>
      <cc:Work rdf:about="">
        <dc:format>image/svg+xml</dc:format>
        <dc:type rdf:resource="http://purl.org/dc/dcmitype/StillImage" />
        <dc:title></dc:title>
      </cc:Work>
    </rdf:RDF>
  </metadata>
  <g transform="translate(-142.38017,-146.93481)" id="layer1" inkscape:groupmode="layer" inkscape:label="Lager 1">
    <path sodipodi:nodetypes="ccccccccccccccccccccccccccccccccccccccccccccccccccccccc" style="opacity:0.18;fill:#ff0000;fill-opacity:1;stroke:#ff0000;stroke-width:0.21763800000000000px;stroke-linecap:butt;stroke-linejoin:miter;stroke-opacity:1" d="m 158.37997,167.13105 -0.0377,-20.04595 -0.61347,0.20195 -1.0435,0.62642 -0.78265,0.54813 -0.86092,0.75692 -0.6,0.83525 -0.26089,0.57422 -0.46959,0.91354 -0.6,0.73084 -0.99134,0.60034 -1.09571,0.52201 -1.1479,0.261 -0.86093,0.0262 -0.15639,0.73084 -0.33922,0.86134 v 0.46982 l -0.18258,0.23491 -0.39132,0.15658 -0.41744,0.2871 -0.15639,0.49593 v 0.49592 l 0.33913,0.33931 0.0518,0.36542 -0.26087,0.28712 -0.44346,0.20881 -0.41743,0.31322 v 0.52201 l 0.13039,0.52203 -0.0262,0.41762 -0.23478,0.26099 -0.26089,0.15658 -0.0782,0.39153 -0.1042,0.52203 -0.18258,0.41762 -0.49567,0.15658 -0.75658,0.0522 -0.78259,0.0522 -0.36522,0.26098 -0.18258,0.41765 -0.41734,0.65251 -0.28701,0.23493 1.01738,0.36541 1.98269,-0.0522 1.46093,0.10438 1.30447,0.46984 1.35658,0.67863 1.35658,0.80915 1.25225,0.80913 1.04347,0.57423 1.09569,0.73082 1.14792,0.10439 1.14788,-0.36543 0.99134,-0.20882 z" id="path2095" inkscape:export-xdpi="300" inkscape:export-ydpi="300" />
  </g>
</svg>
