<?xml version="1.0" encoding="UTF-8" standalone="no"?>
<svg xmlns:dc="http://purl.org/dc/elements/1.1/" xmlns:cc="http://creativecommons.org/ns#" xmlns:rdf="http://www.w3.org/1999/02/22-rdf-syntax-ns#" xmlns:svg="http://www.w3.org/2000/svg" xmlns="http://www.w3.org/2000/svg" xmlns:sodipodi="http://sodipodi.sourceforge.net/DTD/sodipodi-0.dtd" xmlns:inkscape="http://www.inkscape.org/namespaces/inkscape" sodipodi:docname="region54.svg" inkscape:version="1.0 (4035a4f, 2020-05-01)" id="svg8826" version="1.1" viewBox="0 0 8.6338549 9.2820024" height="9.2820024mm" width="8.6338549mm">
  <defs id="defs8820" />
  <sodipodi:namedview inkscape:window-maximized="0" inkscape:window-y="25" inkscape:window-x="0" inkscape:window-height="777" inkscape:window-width="1252" showgrid="false" inkscape:document-rotation="0" inkscape:current-layer="layer1" inkscape:document-units="mm" inkscape:cy="-31.030643" inkscape:cx="139.17309" inkscape:zoom="0.35" inkscape:pageshadow="2" inkscape:pageopacity="0.0" borderopacity="1.0" bordercolor="#666666" pagecolor="#ffffff" id="base" />
  <metadata id="metadata8823">
    <rdf:RDF>
      <cc:Work rdf:about="">
        <dc:format>image/svg+xml</dc:format>
        <dc:type rdf:resource="http://purl.org/dc/dcmitype/StillImage" />
        <dc:title></dc:title>
      </cc:Work>
    </rdf:RDF>
  </metadata>
  <g transform="translate(-69.010454,-156.37686)" id="layer1" inkscape:groupmode="layer" inkscape:label="Lager 1">
    <path inkscape:export-ydpi="300" inkscape:export-xdpi="300" style="opacity:0.18;fill:#ff0000;stroke:#ff0000;stroke-width:0.11550400000000000px;stroke-linecap:butt;stroke-linejoin:miter;stroke-opacity:1;fill-opacity:1" d="m 70.596151,165.57775 0.64612,-0.52892 0.56785,-0.37222 0.56785,-0.43098 0.39156,-0.43099 0.46996,-0.52892 0.54823,-0.4114 0.64618,-0.15672 0.54824,-0.23509 0.607,-0.33303 0.64614,-0.33303 0.56784,-0.13713 0.0195,-0.29385 -0.0783,-0.21549 -0.0783,-0.2155 0.039,-0.1959 0.15661,-0.11754 0.35246,-0.0587 0.2741,-0.15672 0.0979,-0.25467 -0.0195,-0.45057 -0.0783,-0.33304 0.0587,-0.45058 -0.0786,-0.43811 -0.7011,-0.45388 -0.45363,-0.37136 -1.81465,0.0412 -0.49491,-0.45388 -0.41243,-0.49515 -0.74232,-0.33009 -0.5774,0.0412 -0.53613,0.61893 -0.21955,0.58725 -0.31328,0.43099 -0.31329,0.70524 -0.35245,0.62689 -0.15666,0.52893 -0.76364,1.43008 -0.4699,0.72484 -0.0783,0.37221 0.039,0.43098 0.37201,1.07746 0.37201,0.66607 z" id="path2065" sodipodi:nodetypes="cccccccccccccccccccccccccccccccccccccccccccc" />
  </g>
</svg>
