<?xml version="1.0" encoding="UTF-8" standalone="no"?>
<svg xmlns:dc="http://purl.org/dc/elements/1.1/" xmlns:cc="http://creativecommons.org/ns#" xmlns:rdf="http://www.w3.org/1999/02/22-rdf-syntax-ns#" xmlns:svg="http://www.w3.org/2000/svg" xmlns="http://www.w3.org/2000/svg" xmlns:sodipodi="http://sodipodi.sourceforge.net/DTD/sodipodi-0.dtd" xmlns:inkscape="http://www.inkscape.org/namespaces/inkscape" sodipodi:docname="region03.svg" inkscape:version="1.0 (4035a4f, 2020-05-01)" id="svg1593" version="1.1" viewBox="0 0 29.006302 30.577433" height="30.577433mm" width="29.006302mm">
  <defs id="defs1587" />
  <sodipodi:namedview inkscape:window-maximized="0" inkscape:window-y="25" inkscape:window-x="0" inkscape:window-height="777" inkscape:window-width="1252" fit-margin-bottom="0" fit-margin-right="0" fit-margin-left="0" fit-margin-top="0" showgrid="false" inkscape:document-rotation="0" inkscape:current-layer="layer1" inkscape:document-units="mm" inkscape:cy="-105.07302" inkscape:cx="48.005285" inkscape:zoom="0.35" inkscape:pageshadow="2" inkscape:pageopacity="0.0" borderopacity="1.0" bordercolor="#666666" pagecolor="#ffffff" id="base" />
  <metadata id="metadata1590">
    <rdf:RDF>
      <cc:Work rdf:about="">
        <dc:format>image/svg+xml</dc:format>
        <dc:type rdf:resource="http://purl.org/dc/dcmitype/StillImage" />
        <dc:title></dc:title>
      </cc:Work>
    </rdf:RDF>
  </metadata>
  <g transform="translate(-93.131935,-175.96724)" id="layer1" inkscape:groupmode="layer" inkscape:label="Lager 1">
    <path id="path1561-1" d="m 121.99543,195.45042 -0.0482,-19.10028 -0.60188,0.69852 -2.5515,2.02281 -2.98528,1.3007 -5.3932,1.34869 -1.92586,0.62626 -2.07004,1.10815 -1.44445,1.39702 -0.96346,4.04644 -1.01115,1.30065 -1.15517,1.10815 -1.05961,0.2405 -2.21461,0.91546 -1.540753,0.91529 -1.589294,1.30053 -2.021819,2.89055 -0.144593,1.97513 v 1.39701 l 0.191069,1.43708 1.293764,3e-5 1.838545,0.2041 1.656623,0.43405 2.088458,0.79241 2.04292,0.9538 1.90659,1.56689 1.64524,-2.69071 1.82969,-3.08313 3.12974,-2.02327 1.92604,-0.62642 2.02223,-0.33721 3.08156,-0.0479 1.34811,-0.28902 1.30001,-0.72269 z" style="opacity:0.18;fill:#ff0000;fill-opacity:1;stroke:#ff0000;stroke-width:0.285252;stroke-linecap:butt;stroke-linejoin:miter;stroke-miterlimit:4;stroke-dasharray:none;stroke-opacity:1" />
  </g>
</svg>
