<?xml version="1.0" encoding="UTF-8" standalone="no"?>
<svg xmlns:dc="http://purl.org/dc/elements/1.1/" xmlns:cc="http://creativecommons.org/ns#" xmlns:rdf="http://www.w3.org/1999/02/22-rdf-syntax-ns#" xmlns:svg="http://www.w3.org/2000/svg" xmlns="http://www.w3.org/2000/svg" xmlns:sodipodi="http://sodipodi.sourceforge.net/DTD/sodipodi-0.dtd" xmlns:inkscape="http://www.inkscape.org/namespaces/inkscape" sodipodi:docname="region20.svg" inkscape:version="1.0 (4035a4f, 2020-05-01)" id="svg4081" version="1.1" viewBox="0 0 35.176277 20.588957" height="20.588957mm" width="35.176277mm">
  <defs id="defs4075" />
  <sodipodi:namedview inkscape:window-maximized="0" inkscape:window-y="25" inkscape:window-x="0" inkscape:window-height="776" inkscape:window-width="1252" showgrid="false" inkscape:document-rotation="0" inkscape:current-layer="layer1" inkscape:document-units="mm" inkscape:cy="14.659648" inkscape:cx="53.617674" inkscape:zoom="0.35" inkscape:pageshadow="2" inkscape:pageopacity="0.0" borderopacity="1.0" bordercolor="#666666" pagecolor="#ffffff" id="base" />
  <metadata id="metadata4078">
    <rdf:RDF>
      <cc:Work rdf:about="">
        <dc:format>image/svg+xml</dc:format>
        <dc:type rdf:resource="http://purl.org/dc/dcmitype/StillImage" />
        <dc:title></dc:title>
      </cc:Work>
    </rdf:RDF>
  </metadata>
  <g transform="translate(-91.646991,-144.28797)" id="layer1" inkscape:groupmode="layer" inkscape:label="Lager 1">
    <path id="path2025-1" d="m 91.903769,145.61802 -0.05175,2.18373 -0.05175,1.97577 v 1.6118 l 0.883518,1.97578 0.83147,1.24784 1.351113,1.35186 1.40316,1.14385 1.870755,1.50781 1.403133,0.88389 2.130692,0.67592 1.55904,0.15579 1.66297,0.31194 1.4552,0.46796 1.71486,0.57193 1.76693,0.41595 2.28651,0.41597 1.24734,0.0518 2.33842,0.7799 1.24732,0.46794 1.71482,0.88389 0.77959,-0.51991 0.72756,-1.03989 1.55901,-2.13174 0.83147,-1.19584 0.77958,-1.81983 0.31172,-1.40382 0.41582,-2.65169 0.41571,-1.24785 0.51972,-1.7678 1.51551,-1.36919 -2.05798,-0.66179 -2.20477,-0.80883 -2.79276,-1.32357 -1.24938,-0.88237 -2.68248,-0.84557 -2.86629,-0.44121 -7.23909,-0.14704 -2.60899,0.25745 -1.72711,0.66177 -3.993333,0.36106 -3.135532,0.0799 z" style="opacity:0.18;fill:#ff0000;stroke:#ff0000;stroke-width:0.30655700000000002px;stroke-linecap:butt;stroke-linejoin:miter;stroke-opacity:1;fill-opacity:1" inkscape:export-xdpi="300" inkscape:export-ydpi="300" />
  </g>
</svg>
