<?xml version="1.0" encoding="UTF-8" standalone="no"?>
<svg xmlns:dc="http://purl.org/dc/elements/1.1/" xmlns:cc="http://creativecommons.org/ns#" xmlns:rdf="http://www.w3.org/1999/02/22-rdf-syntax-ns#" xmlns:svg="http://www.w3.org/2000/svg" xmlns="http://www.w3.org/2000/svg" xmlns:sodipodi="http://sodipodi.sourceforge.net/DTD/sodipodi-0.dtd" xmlns:inkscape="http://www.inkscape.org/namespaces/inkscape" sodipodi:docname="region11.svg" inkscape:version="1.0 (4035a4f, 2020-05-01)" id="svg960" version="1.1" viewBox="0 0 29.234081 22.671333" height="22.671333mm" width="29.234081mm">
  <defs id="defs954" />
  <sodipodi:namedview inkscape:window-maximized="0" inkscape:window-y="25" inkscape:window-x="0" inkscape:window-height="777" inkscape:window-width="1252" showgrid="false" inkscape:document-rotation="0" inkscape:current-layer="layer1" inkscape:document-units="mm" inkscape:cy="86.400566" inkscape:cx="26.673912" inkscape:zoom="0.35" inkscape:pageshadow="2" inkscape:pageopacity="0.0" borderopacity="1.0" bordercolor="#666666" pagecolor="#ffffff" id="base" />
  <metadata id="metadata957">
    <rdf:RDF>
      <cc:Work rdf:about="">
        <dc:format>image/svg+xml</dc:format>
        <dc:type rdf:resource="http://purl.org/dc/dcmitype/StillImage" />
        <dc:title></dc:title>
      </cc:Work>
    </rdf:RDF>
  </metadata>
  <g transform="translate(-98.775861,-125.30652)" id="layer1" inkscape:groupmode="layer" inkscape:label="Lager 1">
    <path inkscape:export-ydpi="300" inkscape:export-xdpi="300" style="opacity:0.18;fill:#ff0000;stroke:#ff0000;stroke-width:0.23922399999999999px;stroke-linecap:butt;stroke-linejoin:miter;stroke-opacity:1;fill-opacity:1" d="m 99.640053,147.85623 26.000417,0.002 0.22294,-1.05491 0.0808,-1.78525 0.16217,-1.54179 0.16217,-1.78525 0.48655,-0.97377 0.64886,-1.78525 0.0808,-0.97376 0.40557,-2.27214 v -1.54181 -1.29833 l -0.48668,-1.54179 -0.48661,-1.46069 v -1.62286 l 0.0818,-2.67925 v 0 l -1.43374,1.00414 -4.04324,2.40995 -1.17581,0.51642 -2.23661,0.48773 -5.36241,0.48773 -1.23305,-0.20069 -2.52342,1.43448 -4.93211,3.38545 -0.68824,0.80329 -0.51627,1.31977 -0.22934,0.97544 -0.68824,1.83616 -0.57345,1.03283 -1.20445,1.09025 -0.63085,0.8607 -0.516126,1.60664 -0.114741,0.97544 0.229378,1.26235 z" id="path2035-2" sodipodi:nodetypes="cccccccccccccccccccccccccccccccccccc" />
  </g>
</svg>
