<?xml version="1.0" encoding="UTF-8" standalone="no"?>
<svg xmlns:dc="http://purl.org/dc/elements/1.1/" xmlns:cc="http://creativecommons.org/ns#" xmlns:rdf="http://www.w3.org/1999/02/22-rdf-syntax-ns#" xmlns:svg="http://www.w3.org/2000/svg" xmlns="http://www.w3.org/2000/svg" xmlns:sodipodi="http://sodipodi.sourceforge.net/DTD/sodipodi-0.dtd" xmlns:inkscape="http://www.inkscape.org/namespaces/inkscape" sodipodi:docname="region04.svg" inkscape:version="1.0 (4035a4f, 2020-05-01)" id="svg935" version="1.1" viewBox="0 0 36.488434 21.133648" height="21.133648mm" width="36.488434mm">
  <defs id="defs929" />
  <sodipodi:namedview inkscape:window-maximized="0" inkscape:window-y="25" inkscape:window-x="0" inkscape:window-height="777" inkscape:window-width="1252" fit-margin-bottom="0" fit-margin-right="0" fit-margin-left="0" fit-margin-top="0" showgrid="false" inkscape:document-rotation="0" inkscape:current-layer="layer1" inkscape:document-units="mm" inkscape:cy="70.228399" inkscape:cx="0.38311324" inkscape:zoom="1.4" inkscape:pageshadow="2" inkscape:pageopacity="0.0" borderopacity="1.0" bordercolor="#666666" pagecolor="#ffffff" id="base" />
  <metadata id="metadata932">
    <rdf:RDF>
      <cc:Work rdf:about="">
        <dc:format>image/svg+xml</dc:format>
        <dc:type rdf:resource="http://purl.org/dc/dcmitype/StillImage" />
        <dc:title></dc:title>
      </cc:Work>
    </rdf:RDF>
  </metadata>
  <g transform="translate(-123.49685,-149.99612)" id="layer1" inkscape:groupmode="layer" inkscape:label="Lager 1">
    <path inkscape:export-filename="/Users/robinyjord/Desktop/buttons/region02Outline.png" style="opacity:0.18;fill:#ff0000;fill-opacity:1;stroke:#ff0000;stroke-width:0.28934599999999999px;stroke-linecap:butt;stroke-linejoin:miter;stroke-opacity:1" d="m 135.67511,154.12406 1.32273,-0.44378 1.31797,-0.41644 1.59543,-0.5552 2.01168,-0.69403 1.87286,-0.62459 1.66483,-0.48581 2.0117,-0.62464 1.24857,-0.13878 h 1.318 l 1.87297,0.20817 2.01157,0.62462 1.80355,0.62464 2.08112,0.97164 1.17911,0.83279 0.76314,0.76342 -0.83243,0.48583 -1.66485,1.04106 -1.94223,1.04101 -1.2487,0.76342 -2.2197,1.31864 -2.08101,1.17982 -1.17927,0.83286 -0.83241,0.83281 -0.20817,0.62464 v 0.83279 l -0.13853,1.24928 0.55497,1.87387 0.76302,1.31859 1.38739,1.04106 0.97114,1.59623 0.89684,0.7864 -28.0732,-0.0519 0.39232,-0.31897 1.52065,-1.86488 0.88287,-1.6685 0.29424,-1.7667 -0.58856,-1.963 1.03001,-3.43521 0.93206,-3.43526 0.83379,-1.12873 1.12816,-0.58887 1.27526,-0.39262 z" id="path928" sodipodi:nodetypes="cccccccccccccccccccccccccccccccccccccccccccc" inkscape:export-xdpi="300" inkscape:export-ydpi="300" />
  </g>
</svg>
