<?xml version="1.0" encoding="UTF-8" standalone="no"?>
<svg xmlns:dc="http://purl.org/dc/elements/1.1/" xmlns:cc="http://creativecommons.org/ns#" xmlns:rdf="http://www.w3.org/1999/02/22-rdf-syntax-ns#" xmlns:svg="http://www.w3.org/2000/svg" xmlns="http://www.w3.org/2000/svg" xmlns:sodipodi="http://sodipodi.sourceforge.net/DTD/sodipodi-0.dtd" xmlns:inkscape="http://www.inkscape.org/namespaces/inkscape" width="14.703772mm" height="10.232856mm" viewBox="0 0 14.703772 10.232856" version="1.1" id="svg946" inkscape:version="1.0 (4035a4f, 2020-05-01)" sodipodi:docname="region42.svg">
  <defs id="defs940" />
  <sodipodi:namedview id="base" pagecolor="#ffffff" bordercolor="#666666" borderopacity="1.0" inkscape:pageopacity="0.0" inkscape:pageshadow="2" inkscape:zoom="0.35" inkscape:cx="207.78665" inkscape:cy="65.051949" inkscape:document-units="mm" inkscape:current-layer="layer1" inkscape:document-rotation="0" showgrid="false" inkscape:window-width="1252" inkscape:window-height="777" inkscape:window-x="0" inkscape:window-y="25" inkscape:window-maximized="0" />
  <metadata id="metadata943">
    <rdf:RDF>
      <cc:Work rdf:about="">
        <dc:format>image/svg+xml</dc:format>
        <dc:type rdf:resource="http://purl.org/dc/dcmitype/StillImage" />
        <dc:title />
      </cc:Work>
    </rdf:RDF>
  </metadata>
  <g transform="translate(-50.856448,-130.95501)" inkscape:label="Lager 1" inkscape:groupmode="layer" id="layer1">
    <path id="path2007" d="m 54.43097,141.10609 v 0 l 0.58625,-0.56354 0.4895,-0.37222 0.4504,-0.17631 0.66569,-0.11753 0.43078,0.0195 h 0.66574 l 0.4699,-0.13714 0.62657,-0.35262 0.52868,-0.37222 0.43079,-0.37221 0.43078,-0.4114 0.41117,-0.15672 0.66575,-0.13712 0.54823,-0.098 0.62657,-0.17631 0.52864,-0.17632 0.74406,-0.21549 0.56785,-0.11754 0.48951,-0.11754 0.62658,-0.15673 -0.78325,-0.48975 -0.4699,-0.58771 -0.45034,-0.41138 -0.56785,-0.50935 -0.35245,-0.3918 -0.48952,-0.31345 -0.64612,-0.45058 -0.41118,-0.39179 -0.64618,-0.50935 -0.31328,-0.31344 -0.62658,-0.6269 -0.70484,-0.68564 -0.25458,-0.19591 -0.76362,0.33304 -0.62657,0.27426 -0.62657,0.37221 -0.45033,0.29386 -0.48952,0.23508 -0.52868,0.19589 -0.72446,0.35263 -0.45035,0.29385 -0.52108,0.29484 -0.4984,0.47097 -0.36,0.52639 -0.44306,0.44329 -0.63688,1.1913 -0.30462,0.44326 -0.36,0.6095 v 0.94197 l 0.22154,0.49869 0.72001,0.15237 0.37381,0.15237 0.62302,0.36017 0.36001,0.2632 0.60916,0.74802 z" style="opacity:0.18;fill:#ff0000;fill-opacity:1;stroke:#ff0000;stroke-width:0.115504px;stroke-linecap:butt;stroke-linejoin:miter;stroke-opacity:1" inkscape:export-xdpi="300" inkscape:export-ydpi="300" />
  </g>
</svg>
