<?xml version="1.0" encoding="UTF-8" standalone="no"?>
<svg xmlns:dc="http://purl.org/dc/elements/1.1/" xmlns:cc="http://creativecommons.org/ns#" xmlns:rdf="http://www.w3.org/1999/02/22-rdf-syntax-ns#" xmlns:svg="http://www.w3.org/2000/svg" xmlns="http://www.w3.org/2000/svg" xmlns:sodipodi="http://sodipodi.sourceforge.net/DTD/sodipodi-0.dtd" xmlns:inkscape="http://www.inkscape.org/namespaces/inkscape" sodipodi:docname="region16.svg" inkscape:version="1.0 (4035a4f, 2020-05-01)" id="svg1574" version="1.1" viewBox="0 0 29.613789 26.875082" height="26.875082mm" width="29.613789mm">
  <defs id="defs1568" />
  <sodipodi:namedview inkscape:window-maximized="0" inkscape:window-y="25" inkscape:window-x="0" inkscape:window-height="776" inkscape:window-width="1252" showgrid="false" inkscape:document-rotation="0" inkscape:current-layer="layer1" inkscape:document-units="mm" inkscape:cy="27.979935" inkscape:cx="-64.037247" inkscape:zoom="0.35" inkscape:pageshadow="2" inkscape:pageopacity="0.0" borderopacity="1.0" bordercolor="#666666" pagecolor="#ffffff" id="base" />
  <metadata id="metadata1571">
    <rdf:RDF>
      <cc:Work rdf:about="">
        <dc:format>image/svg+xml</dc:format>
        <dc:type rdf:resource="http://purl.org/dc/dcmitype/StillImage" />
        <dc:title></dc:title>
      </cc:Work>
    </rdf:RDF>
  </metadata>
  <g transform="translate(-122.77652,-140.76364)" id="layer1" inkscape:groupmode="layer" inkscape:label="Lager 1">
    <path style="opacity:0.18;fill:#ff0000;fill-opacity:1;stroke:#ff0000;stroke-width:0.26346500000000000px;stroke-linecap:butt;stroke-linejoin:miter;stroke-opacity:1" d="m 123.17199,159.0423 1.11646,0.40219 1.02736,-0.0447 1.56317,0.22331 1.51853,0.40214 2.05448,1.07243 1.20581,1.29589 1.47393,1.42991 1.69723,1.69805 0.98252,0.71496 1.8759,1.02775 1.02724,0.22331 0.26802,-0.58088 v -0.71498 l 0.17861,-0.35748 0.4913,-0.1339 0.91555,-0.0447 0.60301,-0.0671 -0.20096,-0.49154 -0.15625,-0.55859 0.0445,-0.55853 0.22331,-0.26811 0.24569,-0.26811 0.46893,-0.33514 0.80393,-0.13413 0.26791,-0.53622 0.1786,-0.89369 -0.0228,-0.49154 -0.22331,-0.44684 0.22331,-0.35748 0.42436,-0.22354 0.51354,-0.42452 0.37961,-0.37981 -0.1786,-1.40761 -0.0445,-0.78195 v -0.58092 l 0.22331,-0.4469 0.4913,-0.1786 0.22331,-0.40218 0.24567,-0.5362 0.1786,-0.29046 0.1786,-0.35748 0.42434,-0.3128 0.24564,-0.58092 -0.26802,-0.5362 -0.46893,-0.44684 -0.26802,-0.31282 -0.20095,-0.20119 0.0445,-0.44687 0.33501,-0.35748 0.55827,-0.40216 0.49122,-0.31279 0.20095,-0.3128 -0.089,-0.42449 -0.24566,-0.37986 -0.1339,-0.29041 0.089,-0.51391 0.22331,-0.58091 0.5583,-0.35748 0.78156,-0.35748 0.62527,-0.37983 0.40208,-0.24575 0.31265,-0.20119 0.35723,-0.37983 0.20096,-0.33512 v -0.46921 l 0.089,-0.42449 0.35736,-0.3575 0.4466,-0.29047 0.603,-0.0671 0.42422,-0.15625 0.24567,-0.4692 0.15625,-0.62559 0.089,-0.3575 -0.13367,-0.15625 -0.53604,0.0447 -0.53592,-0.22354 -0.35725,-0.40216 -0.35734,-0.46918 -0.33501,-0.20118 -0.44658,-0.0447 -0.46895,0.33512 -0.22331,0.2458 -0.22331,0.26809 -0.22331,0.15625 h -0.53592 l -0.26802,-0.1339 -0.35725,-0.20118 -0.40198,-0.29049 -0.42431,-0.0449 h -0.51357 l -0.3796,0.20118 -0.40198,0.29042 -0.51369,-0.0228 -0.40195,-0.15625 -0.26793,-0.15625 -0.42431,-0.0228 -0.73699,0.35746 -0.58052,0.60328 -1.2283,1.0501 -0.60289,0.29044 -0.60303,0.0894 -0.51366,-0.0228 -0.37962,-0.22354 -0.49129,-0.29042 -0.20095,-0.40218 -0.17861,-0.1339 -0.49132,0.49153 -0.35723,0.42452 -0.22331,0.42452 0.15625,0.62559 -0.089,0.62556 -0.44671,0.53624 -0.49119,0.15625 -0.51369,0.26813 h -0.35725 l -0.44669,-0.22331 h -0.2679 l -0.37972,0.53622 -0.44657,0.75964 -0.35739,0.49156 -0.13389,0.37983 -0.29038,0.20119 -0.46895,0.15625 -0.35725,0.37985 -0.26802,0.40214 -0.13389,0.4692 0.24566,0.49156 0.26802,0.49151 0.22331,0.15648 v 0.46918 l -0.26802,0.42451 -0.42433,0.22331 -0.44658,0.0228 -0.62527,0.0228 -0.35736,0.22331 -0.33499,0.49154 -0.58054,0.96073 0.31262,0.26809 0.22331,0.17883 0.20095,0.44685 -0.0228,0.4692 -0.0673,0.53622 -0.4913,0.33515 -0.37961,0.35745 -0.46897,0.0228 -0.37972,-0.0671 0.29039,0.51387 -0.0228,0.35747 -0.31263,0.46918 -0.49133,0.6703 -0.3796,0.0447 -0.49131,-0.11177 -0.3796,-0.26811 -0.42434,0.0228 -0.91552,0.29046 -0.73699,0.31277 z" id="path2075-6" inkscape:export-xdpi="300" inkscape:export-ydpi="300" />
  </g>
</svg>
