<?xml version="1.0" encoding="UTF-8" standalone="no"?>
<svg xmlns:dc="http://purl.org/dc/elements/1.1/" xmlns:cc="http://creativecommons.org/ns#" xmlns:rdf="http://www.w3.org/1999/02/22-rdf-syntax-ns#" xmlns:svg="http://www.w3.org/2000/svg" xmlns="http://www.w3.org/2000/svg" xmlns:sodipodi="http://sodipodi.sourceforge.net/DTD/sodipodi-0.dtd" xmlns:inkscape="http://www.inkscape.org/namespaces/inkscape" sodipodi:docname="region28.svg" inkscape:version="1.0 (4035a4f, 2020-05-01)" id="svg4077" version="1.1" viewBox="0 0 21.377405 48.018768" height="48.018768mm" width="21.377405mm">
  <defs id="defs4071" />
  <sodipodi:namedview inkscape:window-maximized="0" inkscape:window-y="25" inkscape:window-x="0" inkscape:window-height="777" inkscape:window-width="1252" showgrid="false" inkscape:document-rotation="0" inkscape:current-layer="layer1" inkscape:document-units="mm" inkscape:cy="222.17271" inkscape:cx="87.972468" inkscape:zoom="0.35" inkscape:pageshadow="2" inkscape:pageopacity="0.0" borderopacity="1.0" bordercolor="#666666" pagecolor="#ffffff" id="base" />
  <metadata id="metadata4074">
    <rdf:RDF>
      <cc:Work rdf:about="">
        <dc:format>image/svg+xml</dc:format>
        <dc:type rdf:resource="http://purl.org/dc/dcmitype/StillImage" />
        <dc:title></dc:title>
      </cc:Work>
    </rdf:RDF>
  </metadata>
  <g transform="translate(-82.557284,-89.383471)" id="layer1" inkscape:groupmode="layer" inkscape:label="Lager 1">
    <path style="opacity:0.18;fill:#ff0000;fill-opacity:1;stroke:#ff0000;stroke-width:0.34092099999999997px;stroke-linecap:butt;stroke-linejoin:miter;stroke-opacity:1" d="m 96.30907,89.703779 0.52013,1.676859 0.288961,1.792502 0.173258,2.139403 0.288961,1.272107 0.809121,1.503332 0.635743,0.867355 1.791646,1.040823 1.38695,0.92514 0.6936,0.75169 0.69353,1.21426 0.17326,2.19725 v 1.3299 l -0.11511,2.48636 -0.17326,1.67683 -0.57798,1.04082 -0.75121,1.32987 -0.9247,0.86736 -1.618332,2.48633 -0.173258,1.15646 v 1.38775 l 0.52013,0.8673 1.04026,0.8095 1.27152,1.15646 0.57786,0.57821 0.46245,1.38772 -0.0575,0.40479 v 1.04079 1.09864 1.04079 l -0.28896,0.92515 -0.52016,0.92514 -0.40467,0.92515 -0.51998,0.4626 -0.34684,0.86733 v 1.27208 l -0.23111,1.3299 -0.34669,1.09864 0.17326,2.02382 -1.618331,-1.09861 -1.21358,-1.09865 -1.560445,-1.73465 -0.809093,-1.2721 -0.75124,-0.80951 -1.213783,-0.46257 -1.04026,0.17326 -5.445807,0.13931 -0.286009,-2.12609 -1.021694,-3.31181 -0.41284,-2.6809 -0.363636,-2.06191 -0.04132,-3.31181 -2.2067,-4.90637 -0.04722,-2.55637 0.346664,-2.19726 3.698907,-3.35369 1.386954,-2.02382 0.635773,-1.21425 2.947372,-6.186954 1.618211,-1.965938 1.213754,-1.561216 z" id="path2081-2" inkscape:export-xdpi="300" inkscape:export-ydpi="300" />
  </g>
</svg>
