<?xml version="1.0" encoding="UTF-8" standalone="no"?>
<svg xmlns:dc="http://purl.org/dc/elements/1.1/" xmlns:cc="http://creativecommons.org/ns#" xmlns:rdf="http://www.w3.org/1999/02/22-rdf-syntax-ns#" xmlns:svg="http://www.w3.org/2000/svg" xmlns="http://www.w3.org/2000/svg" xmlns:sodipodi="http://sodipodi.sourceforge.net/DTD/sodipodi-0.dtd" xmlns:inkscape="http://www.inkscape.org/namespaces/inkscape" sodipodi:docname="region70.svg" inkscape:version="1.0 (4035a4f, 2020-05-01)" id="svg9461" version="1.1" viewBox="0 0 6.8450623 12.4318" height="12.4318mm" width="6.8450623mm">
  <defs id="defs9455" />
  <sodipodi:namedview inkscape:window-maximized="0" inkscape:window-y="25" inkscape:window-x="0" inkscape:window-height="777" inkscape:window-width="1252" showgrid="false" inkscape:document-rotation="0" inkscape:current-layer="layer1" inkscape:document-units="mm" inkscape:cy="174.92172" inkscape:cx="-41.350165" inkscape:zoom="0.35" inkscape:pageshadow="2" inkscape:pageopacity="0.0" borderopacity="1.0" bordercolor="#666666" pagecolor="#ffffff" id="base" />
  <metadata id="metadata9458">
    <rdf:RDF>
      <cc:Work rdf:about="">
        <dc:format>image/svg+xml</dc:format>
        <dc:type rdf:resource="http://purl.org/dc/dcmitype/StillImage" />
        <dc:title></dc:title>
      </cc:Work>
    </rdf:RDF>
  </metadata>
  <g transform="translate(-116.7739,-101.88529)" id="layer1" inkscape:groupmode="layer" inkscape:label="Lager 1">
    <path style="opacity:0.18;fill:#ff0000;stroke:#c20000;stroke-width:0.116;stroke-linecap:butt;stroke-linejoin:miter;stroke-miterlimit:4;stroke-dasharray:none;stroke-opacity:1;fill-opacity:1" d="m 118.61092,114.25851 0.4569,-0.014 0.60921,-0.13854 0.58153,-0.27702 0.52612,-0.31861 0.31843,-0.38788 0.25532,-0.46035 0.13234,-0.32922 0.31843,-0.44328 0.45691,-0.40172 0.41537,-0.29091 0.5538,-0.33245 0.32557,-0.10718 -0.023,-8.7829 -3.76383,-0.0309 -0.21606,0.32409 -0.14404,0.34808 -0.20405,0.19204 -0.31207,0.14404 -0.4681,1.15226 -0.22807,0.34808 -0.22805,0.084 -0.12001,0.036 -0.084,0.14403 -0.072,0.21604 -0.048,0.14404 -0.12001,0.072 -0.15603,0.0241 -0.15605,-0.048 0.096,0.16803 0.036,0.13203 v 0.16804 l -0.13203,0.072 -0.048,0.14404 -0.036,0.13202 0.036,0.13203 0.10803,0.15605 0.10803,0.19204 -0.084,0.18005 -0.10803,0.14404 -0.24005,0.15602 -0.084,0.19206 -0.036,0.16804 0.036,0.14404 0.096,0.14401 0.072,0.20405 0.10803,0.20404 0.14404,0.13206 0.14404,0.06 h 0.18005 l 0.18002,0.048 0.096,0.096 0.048,0.14404 0.0119,0.19204 -0.0119,0.18005 -0.06,0.10803 0.036,0.13202 0.096,0.20405 -0.048,0.13203 -0.108,0.14404 -0.084,0.14403 -0.06,0.18003 0.072,0.16803 0.13202,0.16807 0.14404,0.072 0.096,0.25204 -0.0241,0.22807 -0.096,0.19203 0.084,0.13203 0.19204,0.16804 0.16803,0.036 0.19206,0.096 0.10803,0.15605 0.096,0.25206 -0.096,0.15603 -0.084,0.10803 -0.13203,0.0119 0.036,0.13202 0.096,0.096 v 0.24006 l -0.10803,0.12001 -0.19203,0.21606 -0.20405,0.22807 -0.15605,0.14401 0.072,0.19206 0.036,0.26406 0.048,0.21606 0.19203,0.19203 z" id="path9444" />
  </g>
</svg>
